<svg id="Layer_1" data-name="Layer 1" xmlns="http://www.w3.org/2000/svg" xmlns:xlink="http://www.w3.org/1999/xlink" viewBox="0 0 2100 500"><defs><style>.cls-1{fill:#f7c845;}.cls-2{fill:#34a854;}.cls-3{fill:#2ece2a;}.cls-4{fill:#09ef17;}.cls-5{fill:url(#linear-gradient);}.cls-6{fill:url(#linear-gradient-2);}.cls-7{fill:url(#linear-gradient-3);}.cls-8{fill:url(#linear-gradient-4);}.cls-9{fill:url(#linear-gradient-5);}.cls-10{fill:url(#linear-gradient-6);}.cls-11{fill:url(#linear-gradient-7);}.cls-12{fill:url(#linear-gradient-8);}.cls-13{fill:url(#linear-gradient-9);}.cls-14{fill:url(#linear-gradient-10);}.cls-15{fill:url(#linear-gradient-11);}.cls-16{fill:url(#linear-gradient-12);}.cls-17{fill:url(#linear-gradient-13);}.cls-18{fill:url(#linear-gradient-14);}.cls-19{fill:url(#linear-gradient-15);}.cls-20{fill:url(#linear-gradient-16);}.cls-21{fill:url(#linear-gradient-17);}.cls-22{fill:url(#linear-gradient-18);}.cls-23{fill:url(#linear-gradient-19);}.cls-24{fill:url(#linear-gradient-20);}.cls-25{fill:url(#linear-gradient-21);}.cls-26{fill:url(#linear-gradient-22);}.cls-27{fill:url(#linear-gradient-23);}.cls-28{fill:url(#linear-gradient-24);}.cls-29{fill:none;}.cls-30{fill:#4285f5;}.cls-31{fill:#e94436;}.cls-32{fill:#fbbd05;}.cls-33{fill:url(#linear-gradient-25);}.cls-34{fill:url(#linear-gradient-26);}.cls-35{fill:url(#linear-gradient-27);}.cls-36{fill:url(#linear-gradient-28);}.cls-37{fill:url(#linear-gradient-29);}.cls-38{fill:url(#linear-gradient-30);}.cls-39{fill:url(#linear-gradient-31);}.cls-40{fill:url(#linear-gradient-32);}.cls-41{fill:url(#linear-gradient-33);}.cls-42{fill:url(#linear-gradient-34);}.cls-43{fill:url(#linear-gradient-35);}.cls-44{fill:url(#linear-gradient-36);}.cls-45{fill:url(#linear-gradient-37);}.cls-46{fill:url(#linear-gradient-38);}.cls-47{fill:url(#linear-gradient-39);}.cls-48{fill:url(#linear-gradient-40);}.cls-49{fill:url(#linear-gradient-41);}.cls-50{fill:url(#linear-gradient-42);}.cls-51{fill:url(#linear-gradient-43);}.cls-52{fill:url(#linear-gradient-44);}.cls-53{fill:url(#linear-gradient-45);}.cls-54{fill:url(#linear-gradient-46);}.cls-55{fill:url(#linear-gradient-47);}.cls-56{fill:url(#linear-gradient-48);}.cls-57{fill:url(#linear-gradient-49);}.cls-58{fill:url(#linear-gradient-50);}.cls-59{fill:url(#linear-gradient-51);}.cls-60{fill:url(#linear-gradient-52);}.cls-61{fill:url(#linear-gradient-53);}.cls-62{fill:url(#linear-gradient-54);}.cls-63{fill:url(#linear-gradient-55);}.cls-64{fill:url(#linear-gradient-56);}.cls-65{fill:url(#linear-gradient-57);}.cls-66{fill:url(#linear-gradient-58);}.cls-67{fill:url(#linear-gradient-59);}.cls-68{fill:url(#linear-gradient-60);}.cls-69{fill:url(#linear-gradient-61);}.cls-70{fill:url(#linear-gradient-62);}.cls-71{fill:url(#linear-gradient-63);}.cls-72{fill:url(#linear-gradient-64);}.cls-73{fill:url(#linear-gradient-65);}.cls-74{fill:url(#linear-gradient-66);}.cls-75{fill:url(#linear-gradient-67);}.cls-76{fill:url(#linear-gradient-68);}.cls-77{fill:url(#linear-gradient-69);}.cls-78{fill:url(#linear-gradient-70);}.cls-79{fill:url(#linear-gradient-71);}.cls-80{fill:url(#linear-gradient-72);}.cls-81{fill:url(#linear-gradient-73);}.cls-82{fill:url(#linear-gradient-74);}.cls-83{fill:url(#linear-gradient-75);}.cls-84{fill:url(#linear-gradient-76);}</style><linearGradient id="linear-gradient" x1="1050" y1="-0.97" x2="1050" y2="396.87" gradientUnits="userSpaceOnUse"><stop offset="0" stop-color="#1599f4"/><stop offset="1" stop-color="#c2edf0"/></linearGradient><linearGradient id="linear-gradient-2" x1="868.84" y1="-0.97" x2="868.84" y2="396.87" xlink:href="#linear-gradient"/><linearGradient id="linear-gradient-3" x1="868.84" y1="131.44" x2="868.84" y2="147.36" gradientUnits="userSpaceOnUse"><stop offset="0" stop-color="#9fecff"/><stop offset="1" stop-color="#5dc4fa"/></linearGradient><linearGradient id="linear-gradient-4" x1="953.23" y1="-0.97" x2="953.23" y2="396.87" xlink:href="#linear-gradient"/><linearGradient id="linear-gradient-5" x1="953.23" y1="40.44" x2="953.23" y2="56.35" xlink:href="#linear-gradient-3"/><linearGradient id="linear-gradient-6" x1="1160.64" y1="-0.97" x2="1160.64" y2="396.87" xlink:href="#linear-gradient"/><linearGradient id="linear-gradient-7" x1="1160.64" y1="131.94" x2="1160.64" y2="155.07" xlink:href="#linear-gradient-3"/><linearGradient id="linear-gradient-8" x1="1097.49" y1="-0.97" x2="1097.49" y2="396.87" xlink:href="#linear-gradient"/><linearGradient id="linear-gradient-9" x1="1097.49" y1="105.2" x2="1097.49" y2="145.75" xlink:href="#linear-gradient-3"/><linearGradient id="linear-gradient-10" x1="1142.46" y1="-0.97" x2="1142.46" y2="396.87" xlink:href="#linear-gradient"/><linearGradient id="linear-gradient-11" x1="1142.46" y1="131.94" x2="1142.46" y2="155.07" xlink:href="#linear-gradient-3"/><linearGradient id="linear-gradient-12" x1="1142.46" y1="105.2" x2="1142.46" y2="145.75" xlink:href="#linear-gradient-3"/><linearGradient id="linear-gradient-13" x1="1343.2" y1="-0.97" x2="1343.2" y2="396.87" xlink:href="#linear-gradient"/><linearGradient id="linear-gradient-14" x1="1343.2" y1="41.08" x2="1343.2" y2="56.36" xlink:href="#linear-gradient-3"/><linearGradient id="linear-gradient-15" x1="1301.51" y1="-0.97" x2="1301.51" y2="396.87" xlink:href="#linear-gradient"/><linearGradient id="linear-gradient-16" x1="1301.51" y1="23.44" x2="1301.51" y2="50.2" xlink:href="#linear-gradient-3"/><linearGradient id="linear-gradient-17" x1="1331.2" y1="-0.97" x2="1331.2" y2="396.87" xlink:href="#linear-gradient"/><linearGradient id="linear-gradient-18" x1="1331.2" y1="41.08" x2="1331.2" y2="56.36" xlink:href="#linear-gradient-3"/><linearGradient id="linear-gradient-19" x1="1331.2" y1="23.44" x2="1331.2" y2="50.2" xlink:href="#linear-gradient-3"/><linearGradient id="linear-gradient-20" x1="827.84" y1="-0.97" x2="827.84" y2="396.87" xlink:href="#linear-gradient"/><linearGradient id="linear-gradient-21" x1="827.84" y1="134.97" x2="827.84" y2="165.13" xlink:href="#linear-gradient-3"/><linearGradient id="linear-gradient-22" x1="859.25" y1="-0.97" x2="859.25" y2="396.87" xlink:href="#linear-gradient"/><linearGradient id="linear-gradient-23" x1="859.25" y1="131.44" x2="859.25" y2="147.36" xlink:href="#linear-gradient-3"/><linearGradient id="linear-gradient-24" x1="859.25" y1="134.97" x2="859.25" y2="165.13" xlink:href="#linear-gradient-3"/><linearGradient id="linear-gradient-25" x1="350" y1="-0.97" x2="350" y2="396.87" xlink:href="#linear-gradient"/><linearGradient id="linear-gradient-26" x1="65.73" y1="-0.97" x2="65.73" y2="396.87" xlink:href="#linear-gradient"/><linearGradient id="linear-gradient-27" x1="65.73" y1="119.8" x2="65.73" y2="149.96" xlink:href="#linear-gradient-3"/><linearGradient id="linear-gradient-28" x1="620.21" y1="-0.97" x2="620.21" y2="396.87" xlink:href="#linear-gradient"/><linearGradient id="linear-gradient-29" x1="620.21" y1="67.4" x2="620.21" y2="97.57" xlink:href="#linear-gradient-3"/><linearGradient id="linear-gradient-30" x1="443.83" y1="-0.97" x2="443.83" y2="396.87" xlink:href="#linear-gradient"/><linearGradient id="linear-gradient-31" x1="443.83" y1="132.94" x2="443.83" y2="157.69" xlink:href="#linear-gradient-3"/><linearGradient id="linear-gradient-32" x1="148.18" y1="-0.97" x2="148.18" y2="396.87" xlink:href="#linear-gradient"/><linearGradient id="linear-gradient-33" x1="148.18" y1="89.45" x2="148.18" y2="142.31" xlink:href="#linear-gradient-3"/><linearGradient id="linear-gradient-34" x1="88.72" y1="-0.97" x2="88.72" y2="396.87" xlink:href="#linear-gradient"/><linearGradient id="linear-gradient-35" x1="88.72" y1="119.8" x2="88.72" y2="149.96" xlink:href="#linear-gradient-3"/><linearGradient id="linear-gradient-36" x1="88.72" y1="89.45" x2="88.72" y2="142.31" xlink:href="#linear-gradient-3"/><linearGradient id="linear-gradient-37" x1="369" y1="-0.97" x2="369" y2="396.87" xlink:href="#linear-gradient"/><linearGradient id="linear-gradient-38" x1="369" y1="134.91" x2="369" y2="187.76" xlink:href="#linear-gradient-3"/><linearGradient id="linear-gradient-39" x1="427.4" y1="-0.97" x2="427.4" y2="396.87" xlink:href="#linear-gradient"/><linearGradient id="linear-gradient-40" x1="427.4" y1="132.94" x2="427.4" y2="157.69" xlink:href="#linear-gradient-3"/><linearGradient id="linear-gradient-41" x1="427.4" y1="134.91" x2="427.4" y2="187.76" xlink:href="#linear-gradient-3"/><linearGradient id="linear-gradient-42" x1="537.89" y1="-0.97" x2="537.89" y2="396.87" xlink:href="#linear-gradient"/><linearGradient id="linear-gradient-43" x1="537.89" y1="32.56" x2="537.89" y2="85.41" xlink:href="#linear-gradient-3"/><linearGradient id="linear-gradient-44" x1="596.52" y1="-0.97" x2="596.52" y2="396.87" xlink:href="#linear-gradient"/><linearGradient id="linear-gradient-45" x1="596.52" y1="67.4" x2="596.52" y2="97.57" xlink:href="#linear-gradient-3"/><linearGradient id="linear-gradient-46" x1="596.52" y1="32.56" x2="596.52" y2="85.41" xlink:href="#linear-gradient-3"/><linearGradient id="linear-gradient-47" x1="111.83" y1="-0.97" x2="111.83" y2="396.87" xlink:href="#linear-gradient"/><linearGradient id="linear-gradient-48" x1="256.65" y1="-0.97" x2="256.65" y2="396.87" xlink:href="#linear-gradient"/><linearGradient id="linear-gradient-49" x1="476.49" y1="-0.97" x2="476.49" y2="396.87" xlink:href="#linear-gradient"/><linearGradient id="linear-gradient-50" x1="602.31" y1="-0.97" x2="602.31" y2="396.87" xlink:href="#linear-gradient"/><linearGradient id="linear-gradient-51" x1="1750" y1="-0.97" x2="1750" y2="396.87" xlink:href="#linear-gradient"/><linearGradient id="linear-gradient-52" x1="1465.73" y1="-0.97" x2="1465.73" y2="396.87" xlink:href="#linear-gradient"/><linearGradient id="linear-gradient-53" x1="1465.73" y1="119.8" x2="1465.73" y2="149.96" xlink:href="#linear-gradient-3"/><linearGradient id="linear-gradient-54" x1="2020.21" y1="-0.97" x2="2020.21" y2="396.87" xlink:href="#linear-gradient"/><linearGradient id="linear-gradient-55" x1="2020.21" y1="67.4" x2="2020.21" y2="97.57" xlink:href="#linear-gradient-3"/><linearGradient id="linear-gradient-56" x1="1843.83" y1="-0.97" x2="1843.83" y2="396.87" xlink:href="#linear-gradient"/><linearGradient id="linear-gradient-57" x1="1843.83" y1="132.94" x2="1843.83" y2="157.69" xlink:href="#linear-gradient-3"/><linearGradient id="linear-gradient-58" x1="1548.18" y1="-0.97" x2="1548.18" y2="396.87" xlink:href="#linear-gradient"/><linearGradient id="linear-gradient-59" x1="1548.18" y1="89.45" x2="1548.18" y2="142.31" xlink:href="#linear-gradient-3"/><linearGradient id="linear-gradient-60" x1="1488.72" y1="-0.97" x2="1488.72" y2="396.87" xlink:href="#linear-gradient"/><linearGradient id="linear-gradient-61" x1="1488.72" y1="119.8" x2="1488.72" y2="149.96" xlink:href="#linear-gradient-3"/><linearGradient id="linear-gradient-62" x1="1488.72" y1="89.45" x2="1488.72" y2="142.31" xlink:href="#linear-gradient-3"/><linearGradient id="linear-gradient-63" x1="1769" y1="-0.97" x2="1769" y2="396.87" xlink:href="#linear-gradient"/><linearGradient id="linear-gradient-64" x1="1769" y1="134.91" x2="1769" y2="187.76" xlink:href="#linear-gradient-3"/><linearGradient id="linear-gradient-65" x1="1827.4" y1="-0.97" x2="1827.4" y2="396.87" xlink:href="#linear-gradient"/><linearGradient id="linear-gradient-66" x1="1827.4" y1="132.94" x2="1827.4" y2="157.69" xlink:href="#linear-gradient-3"/><linearGradient id="linear-gradient-67" x1="1827.4" y1="134.91" x2="1827.4" y2="187.76" xlink:href="#linear-gradient-3"/><linearGradient id="linear-gradient-68" x1="1937.89" y1="-0.97" x2="1937.89" y2="396.87" xlink:href="#linear-gradient"/><linearGradient id="linear-gradient-69" x1="1937.89" y1="32.56" x2="1937.89" y2="85.41" xlink:href="#linear-gradient-3"/><linearGradient id="linear-gradient-70" x1="1996.52" y1="-0.97" x2="1996.52" y2="396.87" xlink:href="#linear-gradient"/><linearGradient id="linear-gradient-71" x1="1996.52" y1="67.4" x2="1996.52" y2="97.57" xlink:href="#linear-gradient-3"/><linearGradient id="linear-gradient-72" x1="1996.52" y1="32.56" x2="1996.52" y2="85.41" xlink:href="#linear-gradient-3"/><linearGradient id="linear-gradient-73" x1="1511.83" y1="-0.97" x2="1511.83" y2="396.87" xlink:href="#linear-gradient"/><linearGradient id="linear-gradient-74" x1="1656.65" y1="-0.97" x2="1656.65" y2="396.87" xlink:href="#linear-gradient"/><linearGradient id="linear-gradient-75" x1="1876.49" y1="-0.97" x2="1876.49" y2="396.87" xlink:href="#linear-gradient"/><linearGradient id="linear-gradient-76" x1="2002.31" y1="-0.97" x2="2002.31" y2="396.87" xlink:href="#linear-gradient"/></defs><path class="cls-1" d="M1359.28,435.36S1353,450,1344.22,450s-14.77-14.93-14.77-14.93-3.44,5.22-6.88,5.22-6-6.09-6-6.09-10.9,10.15-23.23,10.15a18.79,18.79,0,0,1-16.92-10.44,29.72,29.72,0,0,1-2.33,6.56,8.07,8.07,0,0,1-14.31.41c-.08-.14-.14-.3-.22-.45a30.65,30.65,0,0,1-13.44,3.63c-11.19,0-18.93-8.7-18.93-8.7S1220.86,450,1212.11,450s-14.76-14.93-14.76-14.93-3.45,5.22-6.89,5.22-6-6.09-6-6.09-10.9,10.15-23.23,10.15a18.79,18.79,0,0,1-16.92-10.44,29.72,29.72,0,0,1-2.33,6.56,8.07,8.07,0,0,1-14.31.41,12,12,0,0,1-1.64-5.81s-10.61,9-21.8,9-18.93-8.7-18.93-8.7-6.3,14.64-15,14.64-14.77-14.93-14.77-14.93-3.44,5.22-6.88,5.22-6-6.09-6-6.09-10.9,10.15-23.23,10.15a18.79,18.79,0,0,1-16.92-10.44,29.72,29.72,0,0,1-2.33,6.56,8.07,8.07,0,0,1-14.31.41,11.9,11.9,0,0,1-1.65-5.81s-10.61,9-21.79,9-18.93-8.7-18.93-8.7S937.09,450,928.34,450s-14.77-14.93-14.77-14.93-3.44,5.22-6.88,5.22-6-6.09-6-6.09-10.9,10.15-23.23,10.15a18.79,18.79,0,0,1-16.92-10.44,29.72,29.72,0,0,1-2.33,6.56,8.07,8.07,0,0,1-14.31.41,12,12,0,0,1-1.64-5.81s-10.61,9-21.8,9-18.93-8.7-18.93-8.7-6.3,14.64-15,14.64-14.77-14.93-14.77-14.93-3.44,5.22-6.88,5.22-6-6.09-6-6.09-10.9,10.15-23.23,10.15a18.79,18.79,0,0,1-16.92-10.44,30.24,30.24,0,0,1-2.33,6.56,8.07,8.07,0,0,1-14.31.41,11.9,11.9,0,0,1-1.65-5.81s-.12.11-.35.29V500h700V435.07s-10.61,9-21.79,9S1359.28,435.36,1359.28,435.36Z"/><path class="cls-2" d="M1359.28,429.89s-6.31,12.38-15.06,12.38-14.77-12.62-14.77-12.62-3.44,4.41-6.88,4.41-6-5.15-6-5.15-10.9,8.58-23.23,8.58-16.92-8.82-16.92-8.82a22.82,22.82,0,0,1-2.33,5.55c-2.91,4.95-11.12,5.17-14.31.34-.08-.12-.14-.25-.22-.38a35.1,35.1,0,0,1-13.44,3.07c-11.19,0-18.93-7.36-18.93-7.36s-6.31,12.38-15.06,12.38-14.76-12.62-14.76-12.62-3.45,4.41-6.89,4.41-6-5.15-6-5.15-10.9,8.58-23.23,8.58-16.92-8.82-16.92-8.82a22.82,22.82,0,0,1-2.33,5.55c-2.91,4.95-11.12,5.17-14.31.34a9,9,0,0,1-1.64-4.91s-10.61,7.6-21.8,7.6-18.93-7.36-18.93-7.36-6.3,12.38-15,12.38-14.77-12.62-14.77-12.62-3.44,4.41-6.88,4.41-6-5.15-6-5.15-10.9,8.58-23.23,8.58-16.92-8.82-16.92-8.82a22.82,22.82,0,0,1-2.33,5.55c-2.91,4.95-11.12,5.17-14.31.34a9,9,0,0,1-1.65-4.91s-10.61,7.6-21.79,7.6-18.93-7.36-18.93-7.36-6.31,12.38-15.06,12.38-14.77-12.62-14.77-12.62-3.44,4.41-6.88,4.41-6-5.15-6-5.15-10.9,8.58-23.23,8.58-16.92-8.82-16.92-8.82a22.82,22.82,0,0,1-2.33,5.55c-2.91,4.95-11.12,5.17-14.31.34a9,9,0,0,1-1.64-4.91s-10.61,7.6-21.8,7.6-18.93-7.36-18.93-7.36-6.3,12.38-15,12.38-14.77-12.62-14.77-12.62-3.44,4.41-6.88,4.41-6-5.15-6-5.15-10.9,8.58-23.23,8.58-16.92-8.82-16.92-8.82a23.22,23.22,0,0,1-2.33,5.55c-2.91,4.95-11.12,5.17-14.31.34a9,9,0,0,1-1.65-4.91l-.35.24v5.47c.23-.18.35-.29.35-.29a11.9,11.9,0,0,0,1.65,5.81,8.07,8.07,0,0,0,14.31-.41,30.24,30.24,0,0,0,2.33-6.56,18.79,18.79,0,0,0,16.92,10.44c12.33,0,23.23-10.15,23.23-10.15s2.58,6.09,6,6.09,6.88-5.22,6.88-5.22,6,14.93,14.77,14.93,15-14.64,15-14.64,7.75,8.7,18.93,8.7,21.8-9,21.8-9a12,12,0,0,0,1.64,5.81,8.07,8.07,0,0,0,14.31-.41,29.72,29.72,0,0,0,2.33-6.56,18.79,18.79,0,0,0,16.92,10.44c12.33,0,23.23-10.15,23.23-10.15s2.58,6.09,6,6.09,6.88-5.22,6.88-5.22,6,14.93,14.77,14.93,15.06-14.64,15.06-14.64,7.74,8.7,18.93,8.7,21.79-9,21.79-9a11.9,11.9,0,0,0,1.65,5.81,8.07,8.07,0,0,0,14.31-.41,29.72,29.72,0,0,0,2.33-6.56,18.79,18.79,0,0,0,16.92,10.44c12.33,0,23.23-10.15,23.23-10.15s2.58,6.09,6,6.09,6.88-5.22,6.88-5.22,6,14.93,14.77,14.93,15-14.64,15-14.64,7.75,8.7,18.93,8.7,21.8-9,21.8-9a12,12,0,0,0,1.64,5.81,8.07,8.07,0,0,0,14.31-.41,29.72,29.72,0,0,0,2.33-6.56,18.79,18.79,0,0,0,16.92,10.44c12.33,0,23.23-10.15,23.23-10.15s2.58,6.09,6,6.09,6.89-5.22,6.89-5.22,6,14.93,14.76,14.93,15.06-14.64,15.06-14.64,7.74,8.7,18.93,8.7a30.65,30.65,0,0,0,13.44-3.63c.08.15.14.31.22.45a8.07,8.07,0,0,0,14.31-.41,29.72,29.72,0,0,0,2.33-6.56,18.79,18.79,0,0,0,16.92,10.44c12.33,0,23.23-10.15,23.23-10.15s2.58,6.09,6,6.09,6.88-5.22,6.88-5.22,6,14.93,14.77,14.93,15.06-14.64,15.06-14.64,7.74,8.7,18.93,8.7,21.79-9,21.79-9v-5.42s-10.61,7.6-21.79,7.6S1359.28,429.89,1359.28,429.89Z"/><path class="cls-3" d="M1359.28,413.93s-6.31,5.76-15.06,5.76a23,23,0,0,1-14.77-5.88,15.59,15.59,0,0,1-6.88,2.06,9.8,9.8,0,0,1-6-2.4,75.82,75.82,0,0,1-23.23,4c-12.33,0-16.92-4.11-16.92-4.11a9.57,9.57,0,0,1-2.33,2.58c-2.91,2.31-11.12,2.41-14.31.16-.08-.05-.14-.12-.22-.17a71.16,71.16,0,0,1-13.44,1.42,51.11,51.11,0,0,1-18.93-3.42s-6.31,5.76-15.06,5.76a23,23,0,0,1-14.76-5.88,15.66,15.66,0,0,1-6.89,2.06,9.8,9.8,0,0,1-6-2.4,75.82,75.82,0,0,1-23.23,4c-12.33,0-16.92-4.11-16.92-4.11a9.57,9.57,0,0,1-2.33,2.58c-2.91,2.31-11.12,2.41-14.31.16a3.16,3.16,0,0,1-1.64-2.29,78.34,78.34,0,0,1-21.8,3.54,51.18,51.18,0,0,1-18.93-3.42s-6.3,5.76-15,5.76a23,23,0,0,1-14.77-5.88,15.59,15.59,0,0,1-6.88,2.06,9.8,9.8,0,0,1-6-2.4,75.82,75.82,0,0,1-23.23,4c-12.33,0-16.92-4.11-16.92-4.11a9.57,9.57,0,0,1-2.33,2.58c-2.91,2.31-11.12,2.41-14.31.16a3.15,3.15,0,0,1-1.65-2.29,78.32,78.32,0,0,1-21.79,3.54,51.11,51.11,0,0,1-18.93-3.42s-6.31,5.76-15.06,5.76a23,23,0,0,1-14.77-5.88,15.59,15.59,0,0,1-6.88,2.06,9.8,9.8,0,0,1-6-2.4,75.82,75.82,0,0,1-23.23,4c-12.33,0-16.92-4.11-16.92-4.11a9.57,9.57,0,0,1-2.33,2.58c-2.91,2.31-11.12,2.41-14.31.16a3.16,3.16,0,0,1-1.64-2.29,78.34,78.34,0,0,1-21.8,3.54,51.18,51.18,0,0,1-18.93-3.42s-6.3,5.76-15,5.76a23,23,0,0,1-14.77-5.88,15.59,15.59,0,0,1-6.88,2.06,9.8,9.8,0,0,1-6-2.4,75.82,75.82,0,0,1-23.23,4c-12.33,0-16.92-4.11-16.92-4.11a9.74,9.74,0,0,1-2.33,2.58c-2.91,2.31-11.12,2.41-14.31.16a3.15,3.15,0,0,1-1.65-2.29l-.35.12v16l.35-.24a9,9,0,0,0,1.65,4.91c3.19,4.83,11.4,4.61,14.31-.34a23.22,23.22,0,0,0,2.33-5.55s4.59,8.82,16.92,8.82,23.23-8.58,23.23-8.58,2.58,5.15,6,5.15,6.88-4.41,6.88-4.41,6,12.62,14.77,12.62,15-12.38,15-12.38,7.75,7.36,18.93,7.36,21.8-7.6,21.8-7.6a9,9,0,0,0,1.64,4.91c3.19,4.83,11.4,4.61,14.31-.34a22.82,22.82,0,0,0,2.33-5.55s4.59,8.82,16.92,8.82,23.23-8.58,23.23-8.58,2.58,5.15,6,5.15,6.88-4.41,6.88-4.41,6,12.62,14.77,12.62,15.06-12.38,15.06-12.38,7.74,7.36,18.93,7.36,21.79-7.6,21.79-7.6a9,9,0,0,0,1.65,4.91c3.19,4.83,11.4,4.61,14.31-.34a22.82,22.82,0,0,0,2.33-5.55s4.59,8.82,16.92,8.82,23.23-8.58,23.23-8.58,2.58,5.15,6,5.15,6.88-4.41,6.88-4.41,6,12.62,14.77,12.62,15-12.38,15-12.38,7.75,7.36,18.93,7.36,21.8-7.6,21.8-7.6a9,9,0,0,0,1.64,4.91c3.19,4.83,11.4,4.61,14.31-.34a22.82,22.82,0,0,0,2.33-5.55s4.59,8.82,16.92,8.82,23.23-8.58,23.23-8.58,2.58,5.15,6,5.15,6.89-4.41,6.89-4.41,6,12.62,14.76,12.62,15.06-12.38,15.06-12.38,7.74,7.36,18.93,7.36a35.1,35.1,0,0,0,13.44-3.07c.08.13.14.26.22.38,3.19,4.83,11.4,4.61,14.31-.34a22.82,22.82,0,0,0,2.33-5.55s4.59,8.82,16.92,8.82,23.23-8.58,23.23-8.58,2.58,5.15,6,5.15,6.88-4.41,6.88-4.41,6,12.62,14.77,12.62,15.06-12.38,15.06-12.38,7.74,7.36,18.93,7.36,21.79-7.6,21.79-7.6V413.81a78.32,78.32,0,0,1-21.79,3.54A51.11,51.11,0,0,1,1359.28,413.93Z"/><path class="cls-4" d="M700,413.93l.35-.12A3.15,3.15,0,0,0,702,416.1c3.19,2.25,11.4,2.15,14.31-.16a9.74,9.74,0,0,0,2.33-2.58s4.59,4.11,16.92,4.11a75.82,75.82,0,0,0,23.23-4,9.8,9.8,0,0,0,6,2.4,15.59,15.59,0,0,0,6.88-2.06,23,23,0,0,0,14.77,5.88c8.75,0,15-5.76,15-5.76a51.18,51.18,0,0,0,18.93,3.42,78.34,78.34,0,0,0,21.8-3.54,3.16,3.16,0,0,0,1.64,2.29c3.19,2.25,11.4,2.15,14.31-.16a9.57,9.57,0,0,0,2.33-2.58s4.59,4.11,16.92,4.11a75.82,75.82,0,0,0,23.23-4,9.8,9.8,0,0,0,6,2.4,15.59,15.59,0,0,0,6.88-2.06,23,23,0,0,0,14.77,5.88c8.75,0,15.06-5.76,15.06-5.76a51.11,51.11,0,0,0,18.93,3.42,78.32,78.32,0,0,0,21.79-3.54,3.15,3.15,0,0,0,1.65,2.29c3.19,2.25,11.4,2.15,14.31-.16a9.57,9.57,0,0,0,2.33-2.58s4.59,4.11,16.92,4.11a75.82,75.82,0,0,0,23.23-4,9.8,9.8,0,0,0,6,2.4,15.59,15.59,0,0,0,6.88-2.06,23,23,0,0,0,14.77,5.88c8.75,0,15-5.76,15-5.76a51.18,51.18,0,0,0,18.93,3.42,78.34,78.34,0,0,0,21.8-3.54,3.16,3.16,0,0,0,1.64,2.29c3.19,2.25,11.4,2.15,14.31-.16a9.57,9.57,0,0,0,2.33-2.58s4.59,4.11,16.92,4.11a75.82,75.82,0,0,0,23.23-4,9.8,9.8,0,0,0,6,2.4,15.66,15.66,0,0,0,6.89-2.06,23,23,0,0,0,14.76,5.88c8.75,0,15.06-5.76,15.06-5.76a51.11,51.11,0,0,0,18.93,3.42,71.16,71.16,0,0,0,13.44-1.42c.08.05.14.12.22.17,3.19,2.25,11.4,2.15,14.31-.16a9.57,9.57,0,0,0,2.33-2.58s4.59,4.11,16.92,4.11a75.82,75.82,0,0,0,23.23-4,9.8,9.8,0,0,0,6,2.4,15.59,15.59,0,0,0,6.88-2.06,23,23,0,0,0,14.77,5.88c8.75,0,15.06-5.76,15.06-5.76a51.11,51.11,0,0,0,18.93,3.42,78.32,78.32,0,0,0,21.79-3.54V400H700Z"/><path class="cls-5" d="M700,0V400h700V0ZM879.27,146.69a5.54,5.54,0,0,1,1.44,3.51c0,8.38-23.67,15.16-52.87,15.16S775,158.58,775,150.2,798.65,135,827.84,135c5.15,0,10.11.21,14.81.61,4.73-2.49,13.92-4.17,24.48-4.17,15.41,0,27.9,3.58,27.9,8C895,142.65,888.59,145.39,879.27,146.69Zm74-90.21c-15.41,0-27.9-3.58-27.9-8s12.49-8,27.9-8,27.9,3.58,27.9,8S968.64,56.48,953.23,56.48Zm207.26,98.78c-20.78,0-37.89-4.49-40.26-10.26-7.14.69-14.78,1.07-22.74,1.07-39.25,0-71.07-9.13-71.07-20.39s31.82-20.38,71.07-20.38,71.07,9.13,71.07,20.38c0,2.23-1.27,4.38-3.57,6.38,20.28.65,36.06,5.58,36.06,11.56C1201.05,150.05,1182.89,155.26,1160.49,155.26ZM1343.1,56.48c-13.71,0-25-3-26.58-6.77-4.71.45-9.76.7-15,.7-25.91,0-46.92-6-46.92-13.45s21-13.46,46.92-13.46,46.92,6,46.92,13.46a5.78,5.78,0,0,1-2.36,4.21c13.39.42,23.81,3.68,23.81,7.63C1369.88,53,1357.89,56.48,1343.1,56.48Z"/><path class="cls-6" d="M867.13,131.48c-10.56,0-19.75,1.68-24.48,4.17,18.13,1.51,32.23,5.73,36.62,11,9.32-1.3,15.76-4,15.76-7.21C895,135.06,882.54,131.48,867.13,131.48Z"/><path class="cls-7" d="M867.13,131.48c-10.56,0-19.75,1.68-24.48,4.17,18.13,1.51,32.23,5.73,36.62,11,9.32-1.3,15.76-4,15.76-7.21C895,135.06,882.54,131.48,867.13,131.48Z"/><ellipse class="cls-8" cx="953.23" cy="48.48" rx="27.9" ry="8"/><ellipse class="cls-9" cx="953.23" cy="48.48" rx="27.9" ry="8"/><path class="cls-10" d="M1165,132.06c-7,6.08-23.64,10.89-44.76,12.94,2.37,5.77,19.48,10.26,40.26,10.26,22.4,0,40.56-5.21,40.56-11.64C1201.05,137.64,1185.27,132.71,1165,132.06Z"/><path class="cls-11" d="M1165,132.06c-7,6.08-23.64,10.89-44.76,12.94,2.37,5.77,19.48,10.26,40.26,10.26,22.4,0,40.56-5.21,40.56-11.64C1201.05,137.64,1185.27,132.71,1165,132.06Z"/><path class="cls-12" d="M1160.49,132c1.52,0,3,0,4.5.07,2.3-2,3.57-4.15,3.57-6.38,0-11.25-31.82-20.38-71.07-20.38s-71.07,9.13-71.07,20.38,31.82,20.39,71.07,20.39c8,0,15.6-.38,22.74-1.07a3.52,3.52,0,0,1-.29-1.38C1119.94,137.2,1138.09,132,1160.49,132Z"/><path class="cls-13" d="M1160.49,132c1.52,0,3,0,4.5.07,2.3-2,3.57-4.15,3.57-6.38,0-11.25-31.82-20.38-71.07-20.38s-71.07,9.13-71.07,20.38,31.82,20.39,71.07,20.39c8,0,15.6-.38,22.74-1.07a3.52,3.52,0,0,1-.29-1.38C1119.94,137.2,1138.09,132,1160.49,132Z"/><path class="cls-14" d="M1160.49,132c-22.4,0-40.55,5.21-40.55,11.63a3.52,3.52,0,0,0,.29,1.38c21.12-2.05,37.78-6.86,44.76-12.94C1163.51,132,1162,132,1160.49,132Z"/><path class="cls-15" d="M1160.49,132c-22.4,0-40.55,5.21-40.55,11.63a3.52,3.52,0,0,0,.29,1.38c21.12-2.05,37.78-6.86,44.76-12.94C1163.51,132,1162,132,1160.49,132Z"/><path class="cls-16" d="M1160.49,132c-22.4,0-40.55,5.21-40.55,11.63a3.52,3.52,0,0,0,.29,1.38c21.12-2.05,37.78-6.86,44.76-12.94C1163.51,132,1162,132,1160.49,132Z"/><path class="cls-17" d="M1346.07,41.17c-4.61,4-15.61,7.19-29.55,8.54,1.56,3.81,12.87,6.77,26.58,6.77,14.79,0,26.78-3.44,26.78-7.68C1369.88,44.85,1359.46,41.59,1346.07,41.17Z"/><path class="cls-18" d="M1346.07,41.17c-4.61,4-15.61,7.19-29.55,8.54,1.56,3.81,12.87,6.77,26.58,6.77,14.79,0,26.78-3.44,26.78-7.68C1369.88,44.85,1359.46,41.59,1346.07,41.17Z"/><path class="cls-19" d="M1343.1,41.12c1,0,2,0,3,.05a5.78,5.78,0,0,0,2.36-4.21c0-7.43-21-13.46-46.92-13.46s-46.92,6-46.92,13.46,21,13.45,46.92,13.45c5.25,0,10.3-.25,15-.7a2.43,2.43,0,0,1-.19-.91C1316.33,44.56,1328.32,41.12,1343.1,41.12Z"/><path class="cls-20" d="M1343.1,41.12c1,0,2,0,3,.05a5.78,5.78,0,0,0,2.36-4.21c0-7.43-21-13.46-46.92-13.46s-46.92,6-46.92,13.46,21,13.45,46.92,13.45c5.25,0,10.3-.25,15-.7a2.43,2.43,0,0,1-.19-.91C1316.33,44.56,1328.32,41.12,1343.1,41.12Z"/><path class="cls-21" d="M1343.1,41.12c-14.78,0-26.77,3.44-26.77,7.68a2.43,2.43,0,0,0,.19.91c13.94-1.35,24.94-4.53,29.55-8.54C1345.1,41.14,1344.11,41.12,1343.1,41.12Z"/><path class="cls-22" d="M1343.1,41.12c-14.78,0-26.77,3.44-26.77,7.68a2.43,2.43,0,0,0,.19.91c13.94-1.35,24.94-4.53,29.55-8.54C1345.1,41.14,1344.11,41.12,1343.1,41.12Z"/><path class="cls-23" d="M1343.1,41.12c-14.78,0-26.77,3.44-26.77,7.68a2.43,2.43,0,0,0,.19.91c13.94-1.35,24.94-4.53,29.55-8.54C1345.1,41.14,1344.11,41.12,1343.1,41.12Z"/><path class="cls-24" d="M839.23,139.48c0-1.39,1.24-2.69,3.42-3.83-4.7-.4-9.66-.61-14.81-.61C798.65,135,775,141.83,775,150.2s23.67,15.16,52.86,15.16,52.87-6.78,52.87-15.16a5.54,5.54,0,0,0-1.44-3.51,89.16,89.16,0,0,1-12.14.79C851.72,147.48,839.23,143.9,839.23,139.48Z"/><path class="cls-25" d="M839.23,139.48c0-1.39,1.24-2.69,3.42-3.83-4.7-.4-9.66-.61-14.81-.61C798.65,135,775,141.83,775,150.2s23.67,15.16,52.86,15.16,52.87-6.78,52.87-15.16a5.54,5.54,0,0,0-1.44-3.51,89.16,89.16,0,0,1-12.14.79C851.72,147.48,839.23,143.9,839.23,139.48Z"/><path class="cls-26" d="M842.65,135.65c-2.18,1.14-3.42,2.44-3.42,3.83,0,4.42,12.49,8,27.9,8a89.16,89.16,0,0,0,12.14-.79C874.88,141.38,860.78,137.16,842.65,135.65Z"/><path class="cls-27" d="M842.65,135.65c-2.18,1.14-3.42,2.44-3.42,3.83,0,4.42,12.49,8,27.9,8a89.16,89.16,0,0,0,12.14-.79C874.88,141.38,860.78,137.16,842.65,135.65Z"/><path class="cls-28" d="M842.65,135.65c-2.18,1.14-3.42,2.44-3.42,3.83,0,4.42,12.49,8,27.9,8a89.16,89.16,0,0,0,12.14-.79C874.88,141.38,860.78,137.16,842.65,135.65Z"/><path class="cls-29" d="M1336.34,387.16s-.13.63-.26,1.47l.22-.55A3.08,3.08,0,0,1,1336.34,387.16Z"/><path d="M1334.29,383.39a12.82,12.82,0,0,0,.49,1.21A2,2,0,0,0,1334.29,383.39Z"/><path d="M1333.62,386.67c.59-.07,1-.16,1-.16A6.69,6.69,0,0,0,1333.62,386.67Z"/><path class="cls-2" d="M1341.33,391.18a4.79,4.79,0,0,0-4.78,3.57,9.1,9.1,0,0,1-.5-2c-.42-.69-.19-2.73,0-4.14l-.22.55,0-.1s-.69,3,0,4.55,0,6,0,6,.1.33.26.34a.24.24,0,0,0,.23-.1,13,13,0,0,0,.33-3.9s1.31-1.95,5-1.85a4.5,4.5,0,0,0,4.59-2.95C1344.87,391.79,1341.33,391.18,1341.33,391.18Z"/><path class="cls-30" d="M1334.29,383.39a12.82,12.82,0,0,0,.49,1.21A2,2,0,0,0,1334.29,383.39Z"/><path class="cls-30" d="M1333.62,386.67c.59-.07,1-.16,1-.16A6.69,6.69,0,0,0,1333.62,386.67Z"/><path class="cls-31" d="M1341.9,386.2c.5-.25.88-2.89-.64-3.59-.89-.41-2.22.32-3.16,1a11.69,11.69,0,0,0-1.16.93,5.85,5.85,0,0,0,1.22-3.07c-.1-1.34-.72-1.6-3.11-1.42-1.57.13-1.2,2-.76,3.34h0a2.22,2.22,0,0,0-1.32-.71c-1.83-.32-2.25-.12-2.63.35-.07.08-1,2.43.11,3.28a5.12,5.12,0,0,0,3.17.36h0c-2.53.6-2.25,2.46-2.25,2.59a2.39,2.39,0,0,0,2.15,1.87c1.42,0,2.17-1.55,2.34-1.95l.22-.55c.13-.84.26-1.47.26-1.47a3.08,3.08,0,0,0,0,.92,7.2,7.2,0,0,0,.72,2.52,2.29,2.29,0,0,0,3.46-.39c1.58-1.89-3-3.92-3-3.92C1340.3,387.6,1341.4,386.45,1341.9,386.2Z"/><circle class="cls-1" cx="1335.59" cy="385.51" r="1.24"/><path class="cls-29" d="M851.07,387.16s.13.63.26,1.47l-.21-.55A3.07,3.07,0,0,0,851.07,387.16Z"/><path d="M853.12,383.39a10.26,10.26,0,0,1-.49,1.21A2.07,2.07,0,0,1,853.12,383.39Z"/><path d="M853.79,386.67c-.59-.07-1-.16-1-.16A6.69,6.69,0,0,1,853.79,386.67Z"/><path class="cls-2" d="M846.08,391.18a4.78,4.78,0,0,1,4.78,3.57,9.1,9.1,0,0,0,.5-2c.42-.69.2-2.73,0-4.14l.22.55,0-.1s.69,3,0,4.55,0,6,0,6-.1.33-.27.34a.24.24,0,0,1-.23-.1,13.4,13.4,0,0,1-.33-3.9s-1.31-1.95-5-1.85a4.5,4.5,0,0,1-4.59-2.95C842.54,391.79,846.08,391.18,846.08,391.18Z"/><path class="cls-30" d="M853.12,383.39a10.26,10.26,0,0,1-.49,1.21A2.07,2.07,0,0,1,853.12,383.39Z"/><path class="cls-30" d="M853.79,386.67c-.59-.07-1-.16-1-.16A6.69,6.69,0,0,1,853.79,386.67Z"/><path class="cls-30" d="M845.51,386.2c-.5-.25-.88-2.89.64-3.59.89-.41,2.22.32,3.17,1a10.83,10.83,0,0,1,1.15.93,5.85,5.85,0,0,1-1.22-3.07c.1-1.34.72-1.6,3.12-1.42,1.56.13,1.2,2,.75,3.34h0a2.22,2.22,0,0,1,1.32-.71c1.83-.32,2.26-.12,2.63.35.07.08,1,2.43-.1,3.28a5.15,5.15,0,0,1-3.18.36h0c2.54.6,2.26,2.46,2.26,2.59a2.4,2.4,0,0,1-2.16,1.87c-1.41,0-2.17-1.55-2.34-1.95l-.22-.55c-.13-.84-.26-1.47-.26-1.47a3.07,3.07,0,0,1,0,.92,7.36,7.36,0,0,1-.73,2.52,2.29,2.29,0,0,1-3.46-.39c-1.58-1.89,3-3.92,3-3.92C847.11,387.6,846,386.45,845.51,386.2Z"/><circle class="cls-1" cx="851.82" cy="385.51" r="1.24"/><path class="cls-29" d="M1131.5,387.16s.13.63.26,1.47l-.22-.55A3.08,3.08,0,0,0,1131.5,387.16Z"/><path d="M1133.55,383.39a12.82,12.82,0,0,1-.49,1.21A2,2,0,0,1,1133.55,383.39Z"/><path d="M1134.22,386.67c-.59-.07-1-.16-1-.16A6.69,6.69,0,0,1,1134.22,386.67Z"/><path class="cls-2" d="M1126.51,391.18a4.79,4.79,0,0,1,4.78,3.57,9.1,9.1,0,0,0,.5-2c.42-.69.19-2.73,0-4.14l.22.55,0-.1s.69,3,0,4.55,0,6,0,6-.1.33-.26.34a.24.24,0,0,1-.23-.1,13.4,13.4,0,0,1-.33-3.9s-1.31-1.95-5-1.85a4.5,4.5,0,0,1-4.59-2.95C1123,391.79,1126.51,391.18,1126.51,391.18Z"/><path class="cls-30" d="M1133.55,383.39a12.82,12.82,0,0,1-.49,1.21A2,2,0,0,1,1133.55,383.39Z"/><path class="cls-30" d="M1134.22,386.67c-.59-.07-1-.16-1-.16A6.69,6.69,0,0,1,1134.22,386.67Z"/><path class="cls-30" d="M1125.94,386.2c-.5-.25-.88-2.89.64-3.59.89-.41,2.22.32,3.16,1a11.69,11.69,0,0,1,1.16.93,5.85,5.85,0,0,1-1.22-3.07c.1-1.34.72-1.6,3.11-1.42,1.57.13,1.2,2,.76,3.34h0a2.22,2.22,0,0,1,1.32-.71c1.83-.32,2.25-.12,2.63.35.07.08,1,2.43-.11,3.28a5.12,5.12,0,0,1-3.17.36h0c2.53.6,2.25,2.46,2.25,2.59a2.39,2.39,0,0,1-2.15,1.87c-1.42,0-2.17-1.55-2.34-1.95l-.22-.55c-.13-.84-.26-1.47-.26-1.47a3.08,3.08,0,0,1,0,.92,7.2,7.2,0,0,1-.72,2.52,2.29,2.29,0,0,1-3.46-.39c-1.58-1.89,3-3.92,3-3.92C1127.54,387.6,1126.44,386.45,1125.94,386.2Z"/><circle class="cls-1" cx="1132.25" cy="385.51" r="1.24"/><path class="cls-29" d="M964.93,387.16s-.14.63-.27,1.47l.22-.55A2.77,2.77,0,0,1,964.93,387.16Z"/><path d="M962.87,383.39a12.82,12.82,0,0,0,.49,1.21A2,2,0,0,0,962.87,383.39Z"/><path d="M962.2,386.67c.59-.07,1-.16,1-.16A6.63,6.63,0,0,0,962.2,386.67Z"/><path class="cls-2" d="M969.91,391.18a4.79,4.79,0,0,0-4.78,3.57,9.1,9.1,0,0,1-.5-2c-.42-.69-.19-2.73,0-4.14l-.22.55,0-.1s-.69,3,0,4.55,0,6,0,6,.1.33.26.34a.24.24,0,0,0,.23-.1,13,13,0,0,0,.33-3.9s1.31-1.95,5-1.85a4.5,4.5,0,0,0,4.59-2.95C973.45,391.79,969.91,391.18,969.91,391.18Z"/><path class="cls-30" d="M962.87,383.39a12.82,12.82,0,0,0,.49,1.21A2,2,0,0,0,962.87,383.39Z"/><path class="cls-30" d="M962.2,386.67c.59-.07,1-.16,1-.16A6.63,6.63,0,0,0,962.2,386.67Z"/><path class="cls-32" d="M970.48,386.2c.5-.25.88-2.89-.64-3.59-.89-.41-2.22.32-3.16,1a10.83,10.83,0,0,0-1.15.93,5.87,5.87,0,0,0,1.21-3.07c-.1-1.34-.72-1.6-3.11-1.42-1.57.13-1.2,2-.76,3.34h0a2.19,2.19,0,0,0-1.32-.71c-1.83-.32-2.25-.12-2.63.35-.06.08-1,2.43.11,3.28a5.12,5.12,0,0,0,3.17.36h0c-2.53.6-2.25,2.46-2.25,2.59a2.39,2.39,0,0,0,2.15,1.87c1.42,0,2.17-1.55,2.34-1.95l.22-.55c.13-.84.27-1.47.27-1.47a2.77,2.77,0,0,0,0,.92,7.2,7.2,0,0,0,.72,2.52,2.29,2.29,0,0,0,3.46-.39c1.58-1.89-3-3.92-3-3.92C968.88,387.6,970,386.45,970.48,386.2Z"/><circle class="cls-1" cx="964.17" cy="385.51" r="1.24"/><path class="cls-1" d="M678.56,444.06c-11.19,0-18.93-8.7-18.93-8.7S653.32,450,644.57,450s-14.77-14.93-14.77-14.93-3.44,5.22-6.88,5.22-6-6.09-6-6.09-10.9,10.15-23.23,10.15a18.79,18.79,0,0,1-16.92-10.44,29.72,29.72,0,0,1-2.33,6.56,8.07,8.07,0,0,1-14.31.41,12,12,0,0,1-1.64-5.81s-10.61,9-21.8,9-18.93-8.7-18.93-8.7S511.43,450,502.69,450s-14.77-14.93-14.77-14.93-3.44,5.22-6.88,5.22-6-6.09-6-6.09-10.89,10.15-23.22,10.15a18.79,18.79,0,0,1-16.92-10.44,30.24,30.24,0,0,1-2.33,6.56,8.07,8.07,0,0,1-14.31.41,11.9,11.9,0,0,1-1.65-5.81s-10.61,9-21.79,9-18.93-8.7-18.93-8.7S369.55,450,360.8,450,346,435.07,346,435.07s-3.44,5.22-6.88,5.22-6-6.09-6-6.09-10.9,10.15-23.23,10.15A18.79,18.79,0,0,1,293,433.91a29.72,29.72,0,0,1-2.33,6.56,8.07,8.07,0,0,1-14.31.41,12,12,0,0,1-1.64-5.81s-10.62,9-21.8,9-18.93-8.7-18.93-8.7S227.66,450,218.92,450s-14.77-14.93-14.77-14.93-3.44,5.22-6.88,5.22-6-6.09-6-6.09S180.35,444.35,168,444.35a18.78,18.78,0,0,1-16.92-10.44,30.24,30.24,0,0,1-2.33,6.56,8.07,8.07,0,0,1-14.31.41,11.9,11.9,0,0,1-1.65-5.81s-10.61,9-21.79,9-18.93-8.7-18.93-8.7S85.78,450,77,450s-14.77-14.93-14.77-14.93-3.44,5.22-6.88,5.22-6-6.09-6-6.09-10.9,10.15-23.23,10.15A18.79,18.79,0,0,1,9.21,433.91C6.63,444.93,0,448.7,0,448.7V500H700V435.36C698.09,436.88,688.56,444.06,678.56,444.06Z"/><path class="cls-2" d="M9.21,433.91a18.79,18.79,0,0,0,16.92,10.44c12.33,0,23.23-10.15,23.23-10.15s2.58,6.09,6,6.09,6.88-5.22,6.88-5.22S68.29,450,77,450s15.06-14.64,15.06-14.64,7.74,8.7,18.93,8.7,21.79-9,21.79-9a11.9,11.9,0,0,0,1.65,5.81,8.07,8.07,0,0,0,14.31-.41,30.24,30.24,0,0,0,2.33-6.56A18.78,18.78,0,0,0,168,444.35c12.33,0,23.22-10.15,23.22-10.15s2.59,6.09,6,6.09,6.88-5.22,6.88-5.22,6,14.93,14.77,14.93S234,435.36,234,435.36s7.75,8.7,18.93,8.7,21.8-9,21.8-9a12,12,0,0,0,1.64,5.81,8.07,8.07,0,0,0,14.31-.41,29.72,29.72,0,0,0,2.33-6.56,18.79,18.79,0,0,0,16.92,10.44c12.33,0,23.23-10.15,23.23-10.15s2.58,6.09,6,6.09,6.88-5.22,6.88-5.22,6,14.93,14.77,14.93,15.06-14.64,15.06-14.64,7.74,8.7,18.93,8.7,21.79-9,21.79-9a11.9,11.9,0,0,0,1.65,5.81,8.07,8.07,0,0,0,14.31-.41,30.24,30.24,0,0,0,2.33-6.56,18.79,18.79,0,0,0,16.92,10.44c12.33,0,23.22-10.15,23.22-10.15s2.59,6.09,6,6.09,6.88-5.22,6.88-5.22,6,14.93,14.77,14.93,15.05-14.64,15.05-14.64,7.75,8.7,18.93,8.7,21.8-9,21.8-9a12,12,0,0,0,1.64,5.81,8.07,8.07,0,0,0,14.31-.41,29.72,29.72,0,0,0,2.33-6.56,18.79,18.79,0,0,0,16.92,10.44c12.33,0,23.23-10.15,23.23-10.15s2.58,6.09,6,6.09,6.88-5.22,6.88-5.22,6,14.93,14.77,14.93,15.06-14.64,15.06-14.64,7.74,8.7,18.93,8.7c10,0,19.53-7.18,21.44-8.7v-5.47c-1.91,1.29-11.44,7.36-21.44,7.36-11.19,0-18.93-7.36-18.93-7.36s-6.31,12.38-15.06,12.38-14.77-12.62-14.77-12.62-3.44,4.41-6.88,4.41-6-5.15-6-5.15-10.9,8.58-23.23,8.58-16.92-8.82-16.92-8.82a22.82,22.82,0,0,1-2.33,5.55c-2.91,4.95-11.12,5.17-14.31.34a9,9,0,0,1-1.64-4.91s-10.61,7.6-21.8,7.6-18.93-7.36-18.93-7.36-6.31,12.38-15.05,12.38-14.77-12.62-14.77-12.62-3.44,4.41-6.88,4.41-6-5.15-6-5.15-10.89,8.58-23.22,8.58-16.92-8.82-16.92-8.82a23.22,23.22,0,0,1-2.33,5.55c-2.91,4.95-11.12,5.17-14.31.34a9,9,0,0,1-1.65-4.91s-10.61,7.6-21.79,7.6-18.93-7.36-18.93-7.36-6.31,12.38-15.06,12.38S346,429.65,346,429.65s-3.44,4.41-6.88,4.41-6-5.15-6-5.15-10.9,8.58-23.23,8.58S293,428.67,293,428.67a22.82,22.82,0,0,1-2.33,5.55c-2.91,4.95-11.12,5.17-14.31.34a9,9,0,0,1-1.64-4.91s-10.62,7.6-21.8,7.6S234,429.89,234,429.89s-6.31,12.38-15.05,12.38-14.77-12.62-14.77-12.62-3.44,4.41-6.88,4.41-6-5.15-6-5.15-10.89,8.58-23.22,8.58-16.92-8.82-16.92-8.82a23.22,23.22,0,0,1-2.33,5.55c-2.91,4.95-11.12,5.17-14.31.34a9,9,0,0,1-1.65-4.91s-10.61,7.6-21.79,7.6-18.93-7.36-18.93-7.36S85.78,442.27,77,442.27s-14.77-12.62-14.77-12.62-3.44,4.41-6.88,4.41-6-5.15-6-5.15-10.9,8.58-23.23,8.58-16.92-8.82-16.92-8.82C6.63,438,0,441.17,0,441.17v7.53S6.63,444.93,9.21,433.91Z"/><path class="cls-3" d="M9.21,428.67s4.59,8.82,16.92,8.82,23.23-8.58,23.23-8.58,2.58,5.15,6,5.15,6.88-4.41,6.88-4.41,6,12.62,14.77,12.62,15.06-12.38,15.06-12.38,7.74,7.36,18.93,7.36,21.79-7.6,21.79-7.6a9,9,0,0,0,1.65,4.91c3.19,4.83,11.4,4.61,14.31-.34a23.22,23.22,0,0,0,2.33-5.55s4.58,8.82,16.92,8.82,23.22-8.58,23.22-8.58,2.59,5.15,6,5.15,6.88-4.41,6.88-4.41,6,12.62,14.77,12.62S234,429.89,234,429.89s7.75,7.36,18.93,7.36,21.8-7.6,21.8-7.6a9,9,0,0,0,1.64,4.91c3.19,4.83,11.4,4.61,14.31-.34a22.82,22.82,0,0,0,2.33-5.55s4.59,8.82,16.92,8.82,23.23-8.58,23.23-8.58,2.58,5.15,6,5.15,6.88-4.41,6.88-4.41,6,12.62,14.77,12.62,15.06-12.38,15.06-12.38,7.74,7.36,18.93,7.36,21.79-7.6,21.79-7.6a9,9,0,0,0,1.65,4.91c3.19,4.83,11.4,4.61,14.31-.34a23.22,23.22,0,0,0,2.33-5.55s4.59,8.82,16.92,8.82S475,428.91,475,428.91s2.59,5.15,6,5.15,6.88-4.41,6.88-4.41,6,12.62,14.77,12.62,15.05-12.38,15.05-12.38,7.75,7.36,18.93,7.36,21.8-7.6,21.8-7.6a9,9,0,0,0,1.64,4.91c3.19,4.83,11.4,4.61,14.31-.34a22.82,22.82,0,0,0,2.33-5.55s4.59,8.82,16.92,8.82,23.23-8.58,23.23-8.58,2.58,5.15,6,5.15,6.88-4.41,6.88-4.41,6,12.62,14.77,12.62,15.06-12.38,15.06-12.38,7.74,7.36,18.93,7.36c10,0,19.53-6.07,21.44-7.36v-16a78.31,78.31,0,0,1-21.44,3.42,51.11,51.11,0,0,1-18.93-3.42s-6.31,5.76-15.06,5.76a23,23,0,0,1-14.77-5.88,15.59,15.59,0,0,1-6.88,2.06,9.8,9.8,0,0,1-6-2.4,75.82,75.82,0,0,1-23.23,4c-12.33,0-16.92-4.11-16.92-4.11a9.57,9.57,0,0,1-2.33,2.58c-2.91,2.31-11.12,2.41-14.31.16a3.16,3.16,0,0,1-1.64-2.29,78.34,78.34,0,0,1-21.8,3.54,51.18,51.18,0,0,1-18.93-3.42s-6.31,5.76-15.05,5.76a23,23,0,0,1-14.77-5.88,15.59,15.59,0,0,1-6.88,2.06,9.84,9.84,0,0,1-6-2.4,75.71,75.71,0,0,1-23.22,4c-12.33,0-16.92-4.11-16.92-4.11a9.74,9.74,0,0,1-2.33,2.58c-2.91,2.31-11.12,2.41-14.31.16a3.15,3.15,0,0,1-1.65-2.29,78.32,78.32,0,0,1-21.79,3.54,51.11,51.11,0,0,1-18.93-3.42s-6.31,5.76-15.06,5.76A23,23,0,0,1,346,413.81a15.59,15.59,0,0,1-6.88,2.06,9.8,9.8,0,0,1-6-2.4,75.82,75.82,0,0,1-23.23,4c-12.33,0-16.92-4.11-16.92-4.11a9.57,9.57,0,0,1-2.33,2.58c-2.91,2.31-11.12,2.41-14.31.16a3.16,3.16,0,0,1-1.64-2.29,78.43,78.43,0,0,1-21.8,3.54A51.18,51.18,0,0,1,234,413.93s-6.31,5.76-15.05,5.76a23,23,0,0,1-14.77-5.88,15.59,15.59,0,0,1-6.88,2.06,9.84,9.84,0,0,1-6-2.4,75.71,75.71,0,0,1-23.22,4c-12.34,0-16.92-4.11-16.92-4.11a9.74,9.74,0,0,1-2.33,2.58c-2.91,2.31-11.12,2.41-14.31.16a3.15,3.15,0,0,1-1.65-2.29A78.32,78.32,0,0,1,111,417.35a51.11,51.11,0,0,1-18.93-3.42s-6.31,5.76-15.06,5.76a23,23,0,0,1-14.77-5.88,15.59,15.59,0,0,1-6.88,2.06,9.8,9.8,0,0,1-6-2.4,75.82,75.82,0,0,1-23.23,4c-12.33,0-16.92-4.11-16.92-4.11C6.63,417.7,0,419.18,0,419.18v22S6.63,438,9.21,428.67Z"/><path class="cls-4" d="M9.21,413.36s4.59,4.11,16.92,4.11a75.82,75.82,0,0,0,23.23-4,9.8,9.8,0,0,0,6,2.4,15.59,15.59,0,0,0,6.88-2.06A23,23,0,0,0,77,419.69c8.75,0,15.06-5.76,15.06-5.76A51.11,51.11,0,0,0,111,417.35a78.32,78.32,0,0,0,21.79-3.54,3.15,3.15,0,0,0,1.65,2.29c3.19,2.25,11.4,2.15,14.31-.16a9.74,9.74,0,0,0,2.33-2.58s4.58,4.11,16.92,4.11a75.71,75.71,0,0,0,23.22-4,9.84,9.84,0,0,0,6,2.4,15.59,15.59,0,0,0,6.88-2.06,23,23,0,0,0,14.77,5.88c8.74,0,15.05-5.76,15.05-5.76a51.18,51.18,0,0,0,18.93,3.42,78.43,78.43,0,0,0,21.8-3.54,3.16,3.16,0,0,0,1.64,2.29c3.19,2.25,11.4,2.15,14.31-.16a9.57,9.57,0,0,0,2.33-2.58s4.59,4.11,16.92,4.11a75.82,75.82,0,0,0,23.23-4,9.8,9.8,0,0,0,6,2.4,15.59,15.59,0,0,0,6.88-2.06,23,23,0,0,0,14.77,5.88c8.75,0,15.06-5.76,15.06-5.76a51.11,51.11,0,0,0,18.93,3.42,78.32,78.32,0,0,0,21.79-3.54,3.15,3.15,0,0,0,1.65,2.29c3.19,2.25,11.4,2.15,14.31-.16a9.74,9.74,0,0,0,2.33-2.58s4.59,4.11,16.92,4.11a75.71,75.71,0,0,0,23.22-4,9.84,9.84,0,0,0,6,2.4,15.59,15.59,0,0,0,6.88-2.06,23,23,0,0,0,14.77,5.88c8.74,0,15.05-5.76,15.05-5.76a51.18,51.18,0,0,0,18.93,3.42,78.34,78.34,0,0,0,21.8-3.54,3.16,3.16,0,0,0,1.64,2.29c3.19,2.25,11.4,2.15,14.31-.16a9.57,9.57,0,0,0,2.33-2.58s4.59,4.11,16.92,4.11a75.82,75.82,0,0,0,23.23-4,9.8,9.8,0,0,0,6,2.4,15.59,15.59,0,0,0,6.88-2.06,23,23,0,0,0,14.77,5.88c8.75,0,15.06-5.76,15.06-5.76a51.11,51.11,0,0,0,18.93,3.42A78.31,78.31,0,0,0,700,413.93V400H0v19.18S6.63,417.7,9.21,413.36Z"/><path class="cls-33" d="M700,0H0V400H700ZM117.59,386.31a5.12,5.12,0,0,1-3.17.36c2.53.6,2.25,2.46,2.25,2.59a2.39,2.39,0,0,1-2.16,1.87c-1.41,0-2.16-1.55-2.33-1.95a.55.55,0,0,1,0-.1s.69,3,0,4.55,0,6,0,6-.1.33-.27.34a.23.23,0,0,1-.22-.1,13,13,0,0,1-.33-3.9s-1.31-1.95-5-1.85a4.49,4.49,0,0,1-4.58-2.95c1.39.59,4.94,0,4.94,0a4.79,4.79,0,0,1,4.78,3.57,9.1,9.1,0,0,0,.5-2c.41-.69.19-2.73,0-4.14l-.22-.55a6.92,6.92,0,0,1-.73,2.52,2.28,2.28,0,0,1-3.45-.39c-1.58-1.89,3-3.92,3-3.92-2.79,1.31-3.89.16-4.39-.09s-.88-2.89.64-3.59c.89-.41,2.21.32,3.16,1a10.83,10.83,0,0,1,1.15.93,5.85,5.85,0,0,1-1.22-3.07c.1-1.34.72-1.6,3.12-1.42,1.57.13,1.2,2,.76,3.34a2.16,2.16,0,0,1,1.32-.71c1.82-.32,2.25-.12,2.63.35C117.76,383.11,118.72,385.46,117.59,386.31Zm30.59-243.59a306.76,306.76,0,0,1-31.8-1.6c-8.16,5.34-26.77,9.08-48.43,9.08-29.2,0-52.86-6.79-52.86-15.16,0-7.26,17.78-13.32,41.54-14.81a8.49,8.49,0,0,1-1.09-4.08c0-14.67,41.48-26.57,92.64-26.57s92.64,11.9,92.64,26.57S199.34,142.72,148.18,142.72ZM262.12,394.15c-3.65-.1-5,1.85-5,1.85a13,13,0,0,1-.33,3.9.24.24,0,0,1-.23.1c-.16,0-.26-.34-.26-.34s.69-4.44,0-6,0-4.55,0-4.55l0,.1c-.17.4-.92,2-2.34,1.95a2.39,2.39,0,0,1-2.15-1.87c0-.13-.28-2,2.25-2.59a5.12,5.12,0,0,1-3.17-.36c-1.13-.85-.18-3.2-.11-3.28.38-.47.8-.67,2.63-.35a2.22,2.22,0,0,1,1.32.71c-.44-1.31-.81-3.21.76-3.34,2.39-.18,3,.08,3.11,1.42a5.85,5.85,0,0,1-1.22,3.07,11.69,11.69,0,0,1,1.16-.93c.94-.68,2.27-1.41,3.16-1,1.52.7,1.14,3.34.64,3.59s-1.6,1.4-4.4.09c0,0,4.56,2,3,3.92a2.29,2.29,0,0,1-3.46.39,7.2,7.2,0,0,1-.72-2.52l-.22.55c-.22,1.41-.45,3.45,0,4.14a9.1,9.1,0,0,0,.5,2,4.79,4.79,0,0,1,4.78-3.57s3.54.61,4.94,0A4.5,4.5,0,0,1,262.12,394.15ZM369,188.18c-51.16,0-92.64-11.9-92.64-26.57S317.84,135,369,135a299.72,299.72,0,0,1,36.84,2.19c8-2.6,19.6-4.23,32.58-4.23,24,0,43.39,5.57,43.39,12.44,0,4.65-8.88,8.7-22,10.83a9.22,9.22,0,0,1,1.87,5.34C461.64,176.28,420.16,188.18,369,188.18ZM482.25,386.31a5.12,5.12,0,0,1-3.17.36c2.53.6,2.25,2.46,2.25,2.59a2.39,2.39,0,0,1-2.15,1.87c-1.42,0-2.17-1.55-2.34-1.95a.55.55,0,0,1,0-.1s.69,3,0,4.55,0,6,0,6-.1.33-.27.34a.23.23,0,0,1-.22-.1A13,13,0,0,1,476,396s-1.31-1.95-5-1.85a4.49,4.49,0,0,1-4.58-2.95c1.39.59,4.94,0,4.94,0a4.79,4.79,0,0,1,4.78,3.57,9.1,9.1,0,0,0,.5-2c.41-.69.19-2.73,0-4.14l-.22-.55a6.92,6.92,0,0,1-.73,2.52,2.28,2.28,0,0,1-3.45-.39c-1.58-1.89,3-3.92,3-3.92-2.79,1.31-3.89.16-4.39-.09s-.88-2.89.64-3.59c.89-.41,2.21.32,3.16,1a10.83,10.83,0,0,1,1.15.93,5.87,5.87,0,0,1-1.21-3.07c.1-1.34.71-1.6,3.11-1.42,1.57.13,1.2,2,.76,3.34a2.16,2.16,0,0,1,1.32-.71c1.82-.32,2.25-.12,2.63.35C482.42,383.11,483.38,385.46,482.25,386.31Zm125.53,7.84c-3.66-.1-5,1.85-5,1.85a13.4,13.4,0,0,1-.33,3.9.24.24,0,0,1-.23.1c-.17,0-.27-.34-.27-.34s.69-4.44,0-6,0-4.55,0-4.55a.55.55,0,0,1,0,.1c-.17.4-.92,2-2.33,1.95a2.4,2.4,0,0,1-2.16-1.87c0-.13-.28-2,2.26-2.59a5.15,5.15,0,0,1-3.18-.36c-1.13-.85-.17-3.2-.11-3.28.38-.47.81-.67,2.63-.35a2.22,2.22,0,0,1,1.33.71c-.45-1.31-.82-3.21.75-3.34,2.4-.18,3,.08,3.12,1.42a5.85,5.85,0,0,1-1.22,3.07,10.83,10.83,0,0,1,1.15-.93c.95-.68,2.28-1.41,3.17-1,1.51.7,1.13,3.34.63,3.59s-1.59,1.4-4.39.09c0,0,4.55,2,3,3.92a2.29,2.29,0,0,1-3.46.39,7.13,7.13,0,0,1-.73-2.52l-.22.55c-.22,1.41-.44,3.45,0,4.14a8.83,8.83,0,0,0,.49,2,4.79,4.79,0,0,1,4.78-3.57s3.55.61,4.94,0A4.49,4.49,0,0,1,607.78,394.15ZM620,97.8c-27.08,0-49.39-5.84-52.49-13.36-9.3.9-19.27,1.39-29.64,1.39-51.16,0-92.64-11.9-92.64-26.57s41.48-26.57,92.64-26.57,92.64,11.89,92.64,26.57c0,2.9-1.63,5.7-4.64,8.31,26.43.84,47,7.27,47,15.07C672.88,91,649.21,97.8,620,97.8Z"/><path class="cls-34" d="M56.63,120.23c-23.76,1.49-41.54,7.55-41.54,14.81,0,8.37,23.66,15.16,52.86,15.16,21.66,0,40.27-3.74,48.43-9.08C85.17,137.85,61.82,129.9,56.63,120.23Z"/><path class="cls-35" d="M56.63,120.23c-23.76,1.49-41.54,7.55-41.54,14.81,0,8.37,23.66,15.16,52.86,15.16,21.66,0,40.27-3.74,48.43-9.08C85.17,137.85,61.82,129.9,56.63,120.23Z"/><path class="cls-36" d="M625.89,67.57c-9.09,7.93-30.82,14.2-58.36,16.87C570.63,92,592.94,97.8,620,97.8c29.19,0,52.86-6.78,52.86-15.16C672.88,74.84,652.32,68.41,625.89,67.57Z"/><path class="cls-37" d="M625.89,67.57c-9.09,7.93-30.82,14.2-58.36,16.87C570.63,92,592.94,97.8,620,97.8c29.19,0,52.86-6.78,52.86-15.16C672.88,74.84,652.32,68.41,625.89,67.57Z"/><path class="cls-38" d="M459.77,156.27c13.16-2.13,22-6.18,22-10.83,0-6.87-19.42-12.44-43.39-12.44-13,0-24.63,1.63-32.58,4.23C433.18,140.63,453.67,147.7,459.77,156.27Z"/><path class="cls-39" d="M459.77,156.27c13.16-2.13,22-6.18,22-10.83,0-6.87-19.42-12.44-43.39-12.44-13,0-24.63,1.63-32.58,4.23C433.18,140.63,453.67,147.7,459.77,156.27Z"/><path class="cls-40" d="M148.18,89.58c-51.16,0-92.64,11.9-92.64,26.57a8.49,8.49,0,0,0,1.09,4.08c3.65-.23,7.43-.35,11.32-.35,29.2,0,52.87,6.79,52.87,15.16,0,2.16-1.59,4.22-4.44,6.08a306.76,306.76,0,0,0,31.8,1.6c51.16,0,92.64-11.89,92.64-26.57S199.34,89.58,148.18,89.58Z"/><path class="cls-41" d="M148.18,89.58c-51.16,0-92.64,11.9-92.64,26.57a8.49,8.49,0,0,0,1.09,4.08c3.65-.23,7.43-.35,11.32-.35,29.2,0,52.87,6.79,52.87,15.16,0,2.16-1.59,4.22-4.44,6.08a306.76,306.76,0,0,0,31.8,1.6c51.16,0,92.64-11.89,92.64-26.57S199.34,89.58,148.18,89.58Z"/><path class="cls-42" d="M120.82,135c0-8.37-23.67-15.16-52.87-15.16-3.89,0-7.67.12-11.32.35,5.19,9.67,28.54,17.62,59.75,20.89C119.23,139.26,120.82,137.2,120.82,135Z"/><path class="cls-43" d="M120.82,135c0-8.37-23.67-15.16-52.87-15.16-3.89,0-7.67.12-11.32.35,5.19,9.67,28.54,17.62,59.75,20.89C119.23,139.26,120.82,137.2,120.82,135Z"/><path class="cls-44" d="M120.82,135c0-8.37-23.67-15.16-52.87-15.16-3.89,0-7.67.12-11.32.35,5.19,9.67,28.54,17.62,59.75,20.89C119.23,139.26,120.82,137.2,120.82,135Z"/><path class="cls-45" d="M438.42,157.89c-24,0-43.39-5.58-43.39-12.45,0-3.15,4.09-6,10.81-8.21A299.72,299.72,0,0,0,369,135c-51.16,0-92.64,11.9-92.64,26.57s41.48,26.57,92.64,26.57,92.64-11.9,92.64-26.57a9.22,9.22,0,0,0-1.87-5.34A134.34,134.34,0,0,1,438.42,157.89Z"/><path class="cls-46" d="M438.42,157.89c-24,0-43.39-5.58-43.39-12.45,0-3.15,4.09-6,10.81-8.21A299.72,299.72,0,0,0,369,135c-51.16,0-92.64,11.9-92.64,26.57s41.48,26.57,92.64,26.57,92.64-11.9,92.64-26.57a9.22,9.22,0,0,0-1.87-5.34A134.34,134.34,0,0,1,438.42,157.89Z"/><path class="cls-47" d="M395,145.44c0,6.87,19.43,12.45,43.39,12.45a134.34,134.34,0,0,0,21.35-1.62c-6.1-8.57-26.59-15.64-53.93-19C399.12,139.42,395,142.29,395,145.44Z"/><path class="cls-48" d="M395,145.44c0,6.87,19.43,12.45,43.39,12.45a134.34,134.34,0,0,0,21.35-1.62c-6.1-8.57-26.59-15.64-53.93-19C399.12,139.42,395,142.29,395,145.44Z"/><path class="cls-49" d="M395,145.44c0,6.87,19.43,12.45,43.39,12.45a134.34,134.34,0,0,0,21.35-1.62c-6.1-8.57-26.59-15.64-53.93-19C399.12,139.42,395,142.29,395,145.44Z"/><path class="cls-50" d="M620,67.48c2,0,3.94,0,5.87.09,3-2.61,4.64-5.41,4.64-8.31,0-14.68-41.48-26.57-92.64-26.57s-92.64,11.89-92.64,26.57,41.48,26.57,92.64,26.57c10.37,0,20.34-.49,29.64-1.39a4.77,4.77,0,0,1-.38-1.8C567.15,74.27,590.82,67.48,620,67.48Z"/><path class="cls-51" d="M620,67.48c2,0,3.94,0,5.87.09,3-2.61,4.64-5.41,4.64-8.31,0-14.68-41.48-26.57-92.64-26.57s-92.64,11.89-92.64,26.57,41.48,26.57,92.64,26.57c10.37,0,20.34-.49,29.64-1.39a4.77,4.77,0,0,1-.38-1.8C567.15,74.27,590.82,67.48,620,67.48Z"/><path class="cls-52" d="M620,67.48c-29.2,0-52.87,6.79-52.87,15.16a4.77,4.77,0,0,0,.38,1.8c27.54-2.67,49.27-8.94,58.36-16.87C624,67.51,622,67.48,620,67.48Z"/><path class="cls-53" d="M620,67.48c-29.2,0-52.87,6.79-52.87,15.16a4.77,4.77,0,0,0,.38,1.8c27.54-2.67,49.27-8.94,58.36-16.87C624,67.51,622,67.48,620,67.48Z"/><path class="cls-54" d="M620,67.48c-29.2,0-52.87,6.79-52.87,15.16a4.77,4.77,0,0,0,.38,1.8c27.54-2.67,49.27-8.94,58.36-16.87C624,67.51,622,67.48,620,67.48Z"/><path class="cls-55" d="M111.74,388.08l.22.55c-.13-.84-.27-1.47-.27-1.47A2.77,2.77,0,0,1,111.74,388.08Z"/><path class="cls-2" d="M112,392.77a9.1,9.1,0,0,1-.5,2,4.79,4.79,0,0,0-4.78-3.57s-3.55.61-4.94,0a4.49,4.49,0,0,0,4.58,2.95c3.66-.1,5,1.85,5,1.85a13,13,0,0,0,.33,3.9.23.23,0,0,0,.22.1c.17,0,.27-.34.27-.34s-.69-4.44,0-6,0-4.55,0-4.55a.55.55,0,0,0,0,.1l-.22-.55C112.18,390,112.4,392.08,112,392.77Z"/><path class="cls-30" d="M115.07,382.68a2.16,2.16,0,0,0-1.32.71,10,10,0,0,1-.49,1.2,1.22,1.22,0,0,1,.43.92,1.28,1.28,0,1,1-.43-.92,2,2,0,0,1,.49-1.2c.44-1.31.81-3.21-.76-3.34-2.4-.18-3,.08-3.12,1.42a5.85,5.85,0,0,0,1.22,3.07,10.83,10.83,0,0,0-1.15-.93c-1-.68-2.27-1.41-3.16-1-1.52.7-1.14,3.34-.64,3.59s1.6,1.4,4.39.09c0,0-4.55,2-3,3.92a2.28,2.28,0,0,0,3.45.39,6.92,6.92,0,0,0,.73-2.52,2.77,2.77,0,0,0,0-.92s.14.63.27,1.47l.22.55c.17.4.92,2,2.33,1.95a2.39,2.39,0,0,0,2.16-1.87c0-.13.28-2-2.25-2.59h0c-.59-.07-1-.16-1-.16a6.63,6.63,0,0,1,1,.16,5.12,5.12,0,0,0,3.17-.36c1.13-.85.17-3.2.11-3.28C117.32,382.56,116.89,382.36,115.07,382.68Z"/><path class="cls-30" d="M113.26,384.59a10,10,0,0,0,.49-1.2,2,2,0,0,0-.49,1.2Z"/><path class="cls-30" d="M114.42,386.67a6.63,6.63,0,0,0-1-.16S113.83,386.6,114.42,386.67Z"/><path class="cls-1" d="M113.26,384.59a1.23,1.23,0,1,0,.43.92,1.22,1.22,0,0,0-.43-.92h0Z"/><path class="cls-1" d="M113.26,384.6h0Z"/><path class="cls-56" d="M256.78,387.16s-.13.63-.26,1.47l.22-.55A3.08,3.08,0,0,1,256.78,387.16Z"/><path class="cls-2" d="M261.77,391.18a4.79,4.79,0,0,0-4.78,3.57,9.1,9.1,0,0,1-.5-2c-.42-.69-.19-2.73,0-4.14l-.22.55,0-.1s-.69,3,0,4.55,0,6,0,6,.1.33.26.34a.24.24,0,0,0,.23-.1,13,13,0,0,0,.33-3.9s1.31-1.95,5-1.85a4.5,4.5,0,0,0,4.59-2.95C265.31,391.79,261.77,391.18,261.77,391.18Z"/><path class="cls-31" d="M256.78,387.16a3.08,3.08,0,0,0,0,.92,7.2,7.2,0,0,0,.72,2.52,2.29,2.29,0,0,0,3.46-.39c1.58-1.89-3-3.92-3-3.92,2.8,1.31,3.9.16,4.4-.09s.88-2.89-.64-3.59c-.89-.41-2.22.32-3.16,1a11.69,11.69,0,0,0-1.16.93,5.85,5.85,0,0,0,1.22-3.07c-.1-1.34-.72-1.6-3.11-1.42-1.57.13-1.2,2-.76,3.34a2,2,0,0,1,.49,1.2,1.23,1.23,0,1,1-.43.92,1.22,1.22,0,0,1,.43-.92,10,10,0,0,1-.49-1.2,2.22,2.22,0,0,0-1.32-.71c-1.83-.32-2.25-.12-2.63.35-.07.08-1,2.43.11,3.28a5.12,5.12,0,0,0,3.17.36,6.69,6.69,0,0,1,1-.16s-.42.09-1,.16h0c-2.53.6-2.25,2.46-2.25,2.59a2.39,2.39,0,0,0,2.15,1.87c1.42,0,2.17-1.55,2.34-1.95l.22-.55C256.65,387.79,256.78,387.16,256.78,387.16Z"/><path class="cls-31" d="M255.22,384.59a2,2,0,0,0-.49-1.2,10,10,0,0,0,.49,1.2Z"/><path class="cls-31" d="M254.06,386.67c.59-.07,1-.16,1-.16A6.69,6.69,0,0,0,254.06,386.67Z"/><path class="cls-1" d="M255.22,384.59a1.22,1.22,0,0,0-.43.92,1.28,1.28,0,1,0,.43-.92h0Z"/><path class="cls-1" d="M255.22,384.6h0Z"/><path class="cls-57" d="M476.4,388.08l.22.55c-.13-.84-.27-1.47-.27-1.47A2.77,2.77,0,0,1,476.4,388.08Z"/><path class="cls-2" d="M476.65,392.77a9.1,9.1,0,0,1-.5,2,4.79,4.79,0,0,0-4.78-3.57s-3.55.61-4.94,0a4.49,4.49,0,0,0,4.58,2.95c3.66-.1,5,1.85,5,1.85a13,13,0,0,0,.33,3.9.23.23,0,0,0,.22.1c.17,0,.27-.34.27-.34s-.69-4.44,0-6,0-4.55,0-4.55a.55.55,0,0,0,0,.1l-.22-.55C476.84,390,477.06,392.08,476.65,392.77Z"/><path class="cls-32" d="M479.73,382.68a2.16,2.16,0,0,0-1.32.71,10,10,0,0,1-.49,1.2,1.22,1.22,0,0,1,.43.92,1.28,1.28,0,1,1-.43-.92,2,2,0,0,1,.49-1.2c.44-1.31.81-3.21-.76-3.34-2.4-.18-3,.08-3.11,1.42a5.87,5.87,0,0,0,1.21,3.07,10.83,10.83,0,0,0-1.15-.93c-1-.68-2.27-1.41-3.16-1-1.52.7-1.14,3.34-.64,3.59s1.6,1.4,4.39.09c0,0-4.55,2-3,3.92a2.28,2.28,0,0,0,3.45.39,6.92,6.92,0,0,0,.73-2.52,2.77,2.77,0,0,0,0-.92s.14.63.27,1.47l.22.55c.17.4.92,2,2.34,1.95a2.39,2.39,0,0,0,2.15-1.87c0-.13.28-2-2.25-2.59h0c-.59-.07-1-.16-1-.16a6.63,6.63,0,0,1,1,.16,5.12,5.12,0,0,0,3.17-.36c1.13-.85.17-3.2.11-3.28C482,382.56,481.55,382.36,479.73,382.68Z"/><path class="cls-32" d="M477.92,384.59a10,10,0,0,0,.49-1.2,2,2,0,0,0-.49,1.2Z"/><path class="cls-32" d="M479.08,386.67a6.63,6.63,0,0,0-1-.16S478.49,386.6,479.08,386.67Z"/><path class="cls-1" d="M477.92,384.59a1.23,1.23,0,1,0,.43.92,1.22,1.22,0,0,0-.43-.92h0Z"/><path class="cls-1" d="M477.92,384.6h0Z"/><path class="cls-58" d="M602.44,387.16s-.13.63-.27,1.47l.22-.55A3.07,3.07,0,0,1,602.44,387.16Z"/><path class="cls-2" d="M607.42,391.18a4.79,4.79,0,0,0-4.78,3.57,8.83,8.83,0,0,1-.49-2c-.42-.69-.2-2.73,0-4.14l-.22.55a.55.55,0,0,0,0-.1s-.69,3,0,4.55,0,6,0,6,.1.33.27.34a.24.24,0,0,0,.23-.1,13.4,13.4,0,0,0,.33-3.9s1.3-1.95,5-1.85a4.49,4.49,0,0,0,4.58-2.95C611,391.79,607.42,391.18,607.42,391.18Z"/><path class="cls-31" d="M602.44,387.16a3.07,3.07,0,0,0-.05.92,7.13,7.13,0,0,0,.73,2.52,2.29,2.29,0,0,0,3.46-.39c1.57-1.89-3-3.92-3-3.92,2.8,1.31,3.9.16,4.39-.09s.88-2.89-.63-3.59c-.89-.41-2.22.32-3.17,1a10.83,10.83,0,0,0-1.15.93,5.85,5.85,0,0,0,1.22-3.07c-.1-1.34-.72-1.6-3.12-1.42-1.57.13-1.2,2-.75,3.34a2.15,2.15,0,0,1,.49,1.2,1.2,1.2,0,0,1,.81-.32,1.24,1.24,0,1,1-1.24,1.24,1.21,1.21,0,0,1,.42-.92,11.06,11.06,0,0,1-.48-1.2,2.22,2.22,0,0,0-1.33-.71c-1.82-.32-2.25-.12-2.63.35-.06.08-1,2.43.11,3.28a5.15,5.15,0,0,0,3.18.36,6.69,6.69,0,0,1,1-.16s-.42.09-1,.16h0c-2.54.6-2.26,2.46-2.26,2.59a2.4,2.4,0,0,0,2.16,1.87c1.41,0,2.16-1.55,2.33-1.95l.22-.55C602.31,387.79,602.44,387.16,602.44,387.16Z"/><path class="cls-31" d="M600.88,384.59a2.15,2.15,0,0,0-.49-1.2,11.06,11.06,0,0,0,.48,1.2Z"/><path class="cls-31" d="M599.72,386.67c.59-.07,1-.16,1-.16A6.69,6.69,0,0,0,599.72,386.67Z"/><path class="cls-1" d="M600.87,384.59a1.21,1.21,0,0,0-.42.92,1.24,1.24,0,1,0,1.24-1.24,1.2,1.2,0,0,0-.81.32h0Z"/><path class="cls-1" d="M600.88,384.6h0Z"/><path class="cls-1" d="M2078.56,444.06c-11.19,0-18.93-8.7-18.93-8.7S2053.32,450,2044.57,450s-14.77-14.93-14.77-14.93-3.44,5.22-6.88,5.22-6-6.09-6-6.09-10.9,10.15-23.23,10.15a18.79,18.79,0,0,1-16.92-10.44,29.72,29.72,0,0,1-2.33,6.56,8.07,8.07,0,0,1-14.31.41,12,12,0,0,1-1.64-5.81s-10.61,9-21.8,9-18.93-8.7-18.93-8.7-6.31,14.64-15,14.64-14.77-14.93-14.77-14.93-3.44,5.22-6.88,5.22-6-6.09-6-6.09-10.89,10.15-23.22,10.15a18.79,18.79,0,0,1-16.92-10.44,30.24,30.24,0,0,1-2.33,6.56,8.07,8.07,0,0,1-14.31.41,11.9,11.9,0,0,1-1.65-5.81s-10.61,9-21.79,9-18.93-8.7-18.93-8.7S1769.55,450,1760.8,450,1746,435.07,1746,435.07s-3.44,5.22-6.88,5.22-6-6.09-6-6.09-10.9,10.15-23.23,10.15A18.79,18.79,0,0,1,1693,433.91a29.72,29.72,0,0,1-2.33,6.56,8.07,8.07,0,0,1-14.31.41,12,12,0,0,1-1.64-5.81s-10.62,9-21.8,9-18.93-8.7-18.93-8.7-6.31,14.64-15,14.64-14.77-14.93-14.77-14.93-3.44,5.22-6.88,5.22-6-6.09-6-6.09-10.89,10.15-23.22,10.15a18.78,18.78,0,0,1-16.92-10.44,30.24,30.24,0,0,1-2.33,6.56,8.07,8.07,0,0,1-14.31.41,11.9,11.9,0,0,1-1.65-5.81s-10.61,9-21.79,9-18.93-8.7-18.93-8.7S1485.78,450,1477,450s-14.77-14.93-14.77-14.93-3.44,5.22-6.88,5.22-6-6.09-6-6.09-10.9,10.15-23.23,10.15a18.79,18.79,0,0,1-16.92-10.44c-2.58,11-9.21,14.79-9.21,14.79V500h700V435.36C2098.09,436.88,2088.56,444.06,2078.56,444.06Z"/><path class="cls-2" d="M1409.21,433.91a18.79,18.79,0,0,0,16.92,10.44c12.33,0,23.23-10.15,23.23-10.15s2.58,6.09,6,6.09,6.88-5.22,6.88-5.22,6,14.93,14.77,14.93,15.06-14.64,15.06-14.64,7.74,8.7,18.93,8.7,21.79-9,21.79-9a11.9,11.9,0,0,0,1.65,5.81,8.07,8.07,0,0,0,14.31-.41,30.24,30.24,0,0,0,2.33-6.56A18.78,18.78,0,0,0,1568,444.35c12.33,0,23.22-10.15,23.22-10.15s2.59,6.09,6,6.09,6.88-5.22,6.88-5.22,6,14.93,14.77,14.93,15-14.64,15-14.64,7.75,8.7,18.93,8.7,21.8-9,21.8-9a12,12,0,0,0,1.64,5.81,8.07,8.07,0,0,0,14.31-.41,29.72,29.72,0,0,0,2.33-6.56,18.79,18.79,0,0,0,16.92,10.44c12.33,0,23.23-10.15,23.23-10.15s2.58,6.09,6,6.09,6.88-5.22,6.88-5.22,6,14.93,14.77,14.93,15.06-14.64,15.06-14.64,7.74,8.7,18.93,8.7,21.79-9,21.79-9a11.9,11.9,0,0,0,1.65,5.81,8.07,8.07,0,0,0,14.31-.41,30.24,30.24,0,0,0,2.33-6.56,18.79,18.79,0,0,0,16.92,10.44c12.33,0,23.22-10.15,23.22-10.15s2.59,6.09,6,6.09,6.88-5.22,6.88-5.22,6,14.93,14.77,14.93,15-14.64,15-14.64,7.75,8.7,18.93,8.7,21.8-9,21.8-9a12,12,0,0,0,1.64,5.81,8.07,8.07,0,0,0,14.31-.41,29.72,29.72,0,0,0,2.33-6.56,18.79,18.79,0,0,0,16.92,10.44c12.33,0,23.23-10.15,23.23-10.15s2.58,6.09,6,6.09,6.88-5.22,6.88-5.22,6,14.93,14.77,14.93,15.06-14.64,15.06-14.64,7.74,8.7,18.93,8.7c10,0,19.53-7.18,21.44-8.7v-5.47c-1.91,1.29-11.44,7.36-21.44,7.36-11.19,0-18.93-7.36-18.93-7.36s-6.31,12.38-15.06,12.38-14.77-12.62-14.77-12.62-3.44,4.41-6.88,4.41-6-5.15-6-5.15-10.9,8.58-23.23,8.58-16.92-8.82-16.92-8.82a22.82,22.82,0,0,1-2.33,5.55c-2.91,4.95-11.12,5.17-14.31.34a9,9,0,0,1-1.64-4.91s-10.61,7.6-21.8,7.6-18.93-7.36-18.93-7.36-6.31,12.38-15,12.38-14.77-12.62-14.77-12.62-3.44,4.41-6.88,4.41-6-5.15-6-5.15-10.89,8.58-23.22,8.58-16.92-8.82-16.92-8.82a23.22,23.22,0,0,1-2.33,5.55c-2.91,4.95-11.12,5.17-14.31.34a9,9,0,0,1-1.65-4.91s-10.61,7.6-21.79,7.6-18.93-7.36-18.93-7.36-6.31,12.38-15.06,12.38S1746,429.65,1746,429.65s-3.44,4.41-6.88,4.41-6-5.15-6-5.15-10.9,8.58-23.23,8.58-16.92-8.82-16.92-8.82a22.82,22.82,0,0,1-2.33,5.55c-2.91,4.95-11.12,5.17-14.31.34a9,9,0,0,1-1.64-4.91s-10.62,7.6-21.8,7.6-18.93-7.36-18.93-7.36-6.31,12.38-15,12.38-14.77-12.62-14.77-12.62-3.44,4.41-6.88,4.41-6-5.15-6-5.15-10.89,8.58-23.22,8.58-16.92-8.82-16.92-8.82a23.22,23.22,0,0,1-2.33,5.55c-2.91,4.95-11.12,5.17-14.31.34a9,9,0,0,1-1.65-4.91s-10.61,7.6-21.79,7.6-18.93-7.36-18.93-7.36-6.31,12.38-15.06,12.38-14.77-12.62-14.77-12.62-3.44,4.41-6.88,4.41-6-5.15-6-5.15-10.9,8.58-23.23,8.58-16.92-8.82-16.92-8.82c-2.58,9.31-9.21,12.5-9.21,12.5v7.53S1406.63,444.93,1409.21,433.91Z"/><path class="cls-3" d="M1409.21,428.67s4.59,8.82,16.92,8.82,23.23-8.58,23.23-8.58,2.58,5.15,6,5.15,6.88-4.41,6.88-4.41,6,12.62,14.77,12.62,15.06-12.38,15.06-12.38,7.74,7.36,18.93,7.36,21.79-7.6,21.79-7.6a9,9,0,0,0,1.65,4.91c3.19,4.83,11.4,4.61,14.31-.34a23.22,23.22,0,0,0,2.33-5.55s4.58,8.82,16.92,8.82,23.22-8.58,23.22-8.58,2.59,5.15,6,5.15,6.88-4.41,6.88-4.41,6,12.62,14.77,12.62,15-12.38,15-12.38,7.75,7.36,18.93,7.36,21.8-7.6,21.8-7.6a9,9,0,0,0,1.64,4.91c3.19,4.83,11.4,4.61,14.31-.34a22.82,22.82,0,0,0,2.33-5.55s4.59,8.82,16.92,8.82,23.23-8.58,23.23-8.58,2.58,5.15,6,5.15,6.88-4.41,6.88-4.41,6,12.62,14.77,12.62,15.06-12.38,15.06-12.38,7.74,7.36,18.93,7.36,21.79-7.6,21.79-7.6a9,9,0,0,0,1.65,4.91c3.19,4.83,11.4,4.61,14.31-.34a23.22,23.22,0,0,0,2.33-5.55s4.59,8.82,16.92,8.82,23.22-8.58,23.22-8.58,2.59,5.15,6,5.15,6.88-4.41,6.88-4.41,6,12.62,14.77,12.62,15-12.38,15-12.38,7.75,7.36,18.93,7.36,21.8-7.6,21.8-7.6a9,9,0,0,0,1.64,4.91c3.19,4.83,11.4,4.61,14.31-.34a22.82,22.82,0,0,0,2.33-5.55s4.59,8.82,16.92,8.82,23.23-8.58,23.23-8.58,2.58,5.15,6,5.15,6.88-4.41,6.88-4.41,6,12.62,14.77,12.62,15.06-12.38,15.06-12.38,7.74,7.36,18.93,7.36c10,0,19.53-6.07,21.44-7.36v-16a78.31,78.31,0,0,1-21.44,3.42,51.11,51.11,0,0,1-18.93-3.42s-6.31,5.76-15.06,5.76a23,23,0,0,1-14.77-5.88,15.59,15.59,0,0,1-6.88,2.06,9.8,9.8,0,0,1-6-2.4,75.82,75.82,0,0,1-23.23,4c-12.33,0-16.92-4.11-16.92-4.11a9.57,9.57,0,0,1-2.33,2.58c-2.91,2.31-11.12,2.41-14.31.16a3.16,3.16,0,0,1-1.64-2.29,78.34,78.34,0,0,1-21.8,3.54,51.18,51.18,0,0,1-18.93-3.42s-6.31,5.76-15,5.76a23,23,0,0,1-14.77-5.88,15.59,15.59,0,0,1-6.88,2.06,9.84,9.84,0,0,1-6-2.4,75.71,75.71,0,0,1-23.22,4c-12.33,0-16.92-4.11-16.92-4.11a9.74,9.74,0,0,1-2.33,2.58c-2.91,2.31-11.12,2.41-14.31.16a3.15,3.15,0,0,1-1.65-2.29,78.32,78.32,0,0,1-21.79,3.54,51.11,51.11,0,0,1-18.93-3.42s-6.31,5.76-15.06,5.76a23,23,0,0,1-14.77-5.88,15.59,15.59,0,0,1-6.88,2.06,9.8,9.8,0,0,1-6-2.4,75.82,75.82,0,0,1-23.23,4c-12.33,0-16.92-4.11-16.92-4.11a9.57,9.57,0,0,1-2.33,2.58c-2.91,2.31-11.12,2.41-14.31.16a3.16,3.16,0,0,1-1.64-2.29,78.43,78.43,0,0,1-21.8,3.54,51.18,51.18,0,0,1-18.93-3.42s-6.31,5.76-15,5.76a23,23,0,0,1-14.77-5.88,15.59,15.59,0,0,1-6.88,2.06,9.84,9.84,0,0,1-6-2.4,75.71,75.71,0,0,1-23.22,4c-12.34,0-16.92-4.11-16.92-4.11a9.74,9.74,0,0,1-2.33,2.58c-2.91,2.31-11.12,2.41-14.31.16a3.15,3.15,0,0,1-1.65-2.29,78.32,78.32,0,0,1-21.79,3.54,51.11,51.11,0,0,1-18.93-3.42s-6.31,5.76-15.06,5.76a23,23,0,0,1-14.77-5.88,15.59,15.59,0,0,1-6.88,2.06,9.8,9.8,0,0,1-6-2.4,75.82,75.82,0,0,1-23.23,4c-12.33,0-16.92-4.11-16.92-4.11-2.58,4.34-9.21,5.82-9.21,5.82v22S1406.63,438,1409.21,428.67Z"/><path class="cls-4" d="M1409.21,413.36s4.59,4.11,16.92,4.11a75.82,75.82,0,0,0,23.23-4,9.8,9.8,0,0,0,6,2.4,15.59,15.59,0,0,0,6.88-2.06,23,23,0,0,0,14.77,5.88c8.75,0,15.06-5.76,15.06-5.76a51.11,51.11,0,0,0,18.93,3.42,78.32,78.32,0,0,0,21.79-3.54,3.15,3.15,0,0,0,1.65,2.29c3.19,2.25,11.4,2.15,14.31-.16a9.74,9.74,0,0,0,2.33-2.58s4.58,4.11,16.92,4.11a75.71,75.71,0,0,0,23.22-4,9.84,9.84,0,0,0,6,2.4,15.59,15.59,0,0,0,6.88-2.06,23,23,0,0,0,14.77,5.88c8.74,0,15-5.76,15-5.76a51.18,51.18,0,0,0,18.93,3.42,78.43,78.43,0,0,0,21.8-3.54,3.16,3.16,0,0,0,1.64,2.29c3.19,2.25,11.4,2.15,14.31-.16a9.57,9.57,0,0,0,2.33-2.58s4.59,4.11,16.92,4.11a75.82,75.82,0,0,0,23.23-4,9.8,9.8,0,0,0,6,2.4,15.59,15.59,0,0,0,6.88-2.06,23,23,0,0,0,14.77,5.88c8.75,0,15.06-5.76,15.06-5.76a51.11,51.11,0,0,0,18.93,3.42,78.32,78.32,0,0,0,21.79-3.54,3.15,3.15,0,0,0,1.65,2.29c3.19,2.25,11.4,2.15,14.31-.16a9.74,9.74,0,0,0,2.33-2.58s4.59,4.11,16.92,4.11a75.71,75.71,0,0,0,23.22-4,9.84,9.84,0,0,0,6,2.4,15.59,15.59,0,0,0,6.88-2.06,23,23,0,0,0,14.77,5.88c8.74,0,15-5.76,15-5.76a51.18,51.18,0,0,0,18.93,3.42,78.34,78.34,0,0,0,21.8-3.54,3.16,3.16,0,0,0,1.64,2.29c3.19,2.25,11.4,2.15,14.31-.16a9.57,9.57,0,0,0,2.33-2.58s4.59,4.11,16.92,4.11a75.82,75.82,0,0,0,23.23-4,9.8,9.8,0,0,0,6,2.4,15.59,15.59,0,0,0,6.88-2.06,23,23,0,0,0,14.77,5.88c8.75,0,15.06-5.76,15.06-5.76a51.11,51.11,0,0,0,18.93,3.42,78.31,78.31,0,0,0,21.44-3.42V400H1400v19.18S1406.63,417.7,1409.21,413.36Z"/><path class="cls-59" d="M2100,0H1400V400h700ZM1517.59,386.31a5.12,5.12,0,0,1-3.17.36c2.53.6,2.25,2.46,2.25,2.59a2.39,2.39,0,0,1-2.16,1.87c-1.41,0-2.16-1.55-2.33-1.95a.55.55,0,0,1,0-.1s.69,3,0,4.55,0,6,0,6-.1.33-.27.34a.23.23,0,0,1-.22-.1,13,13,0,0,1-.33-3.9s-1.31-1.95-5-1.85a4.49,4.49,0,0,1-4.58-2.95c1.39.59,4.94,0,4.94,0a4.79,4.79,0,0,1,4.78,3.57,9.1,9.1,0,0,0,.5-2c.41-.69.19-2.73,0-4.14l-.22-.55a6.92,6.92,0,0,1-.73,2.52,2.28,2.28,0,0,1-3.45-.39c-1.58-1.89,3-3.92,3-3.92-2.79,1.31-3.89.16-4.39-.09s-.88-2.89.64-3.59c.89-.41,2.21.32,3.16,1a10.83,10.83,0,0,1,1.15.93,5.85,5.85,0,0,1-1.22-3.07c.1-1.34.72-1.6,3.12-1.42,1.57.13,1.2,2,.76,3.34a2.16,2.16,0,0,1,1.32-.71c1.82-.32,2.25-.12,2.63.35C1517.76,383.11,1518.72,385.46,1517.59,386.31Zm30.59-243.59a306.76,306.76,0,0,1-31.8-1.6c-8.16,5.34-26.77,9.08-48.43,9.08-29.2,0-52.86-6.79-52.86-15.16,0-7.26,17.78-13.32,41.54-14.81a8.49,8.49,0,0,1-1.09-4.08c0-14.67,41.48-26.57,92.64-26.57s92.64,11.9,92.64,26.57S1599.34,142.72,1548.18,142.72Zm113.94,251.43c-3.65-.1-5,1.85-5,1.85a13,13,0,0,1-.33,3.9.24.24,0,0,1-.23.1c-.16,0-.26-.34-.26-.34s.69-4.44,0-6,0-4.55,0-4.55l0,.1c-.17.4-.92,2-2.34,1.95a2.39,2.39,0,0,1-2.15-1.87c0-.13-.28-2,2.25-2.59a5.12,5.12,0,0,1-3.17-.36c-1.13-.85-.18-3.2-.11-3.28.38-.47.8-.67,2.63-.35a2.22,2.22,0,0,1,1.32.71c-.44-1.31-.81-3.21.76-3.34,2.39-.18,3,.08,3.11,1.42a5.85,5.85,0,0,1-1.22,3.07,11.69,11.69,0,0,1,1.16-.93c.94-.68,2.27-1.41,3.16-1,1.52.7,1.14,3.34.64,3.59s-1.6,1.4-4.4.09c0,0,4.56,2,3,3.92a2.29,2.29,0,0,1-3.46.39,7.2,7.2,0,0,1-.72-2.52l-.22.55c-.22,1.41-.45,3.45,0,4.14a9.1,9.1,0,0,0,.5,2,4.79,4.79,0,0,1,4.78-3.57s3.54.61,4.94,0A4.5,4.5,0,0,1,1662.12,394.15Zm106.88-206c-51.16,0-92.64-11.9-92.64-26.57S1717.84,135,1769,135a299.72,299.72,0,0,1,36.84,2.19c8-2.6,19.6-4.23,32.58-4.23,24,0,43.39,5.57,43.39,12.44,0,4.65-8.88,8.7-22,10.83a9.22,9.22,0,0,1,1.87,5.34C1861.64,176.28,1820.16,188.18,1769,188.18Zm113.25,198.13a5.12,5.12,0,0,1-3.17.36c2.53.6,2.25,2.46,2.25,2.59a2.39,2.39,0,0,1-2.15,1.87c-1.42,0-2.17-1.55-2.34-1.95a.55.55,0,0,1,0-.1s.69,3,0,4.55,0,6,0,6-.1.33-.27.34a.23.23,0,0,1-.22-.1,13,13,0,0,1-.33-3.9s-1.31-1.95-5-1.85a4.49,4.49,0,0,1-4.58-2.95c1.39.59,4.94,0,4.94,0a4.79,4.79,0,0,1,4.78,3.57,9.1,9.1,0,0,0,.5-2c.41-.69.19-2.73,0-4.14l-.22-.55a6.92,6.92,0,0,1-.73,2.52,2.28,2.28,0,0,1-3.45-.39c-1.58-1.89,3-3.92,3-3.92-2.79,1.31-3.89.16-4.39-.09s-.88-2.89.64-3.59c.89-.41,2.21.32,3.16,1a10.83,10.83,0,0,1,1.15.93,5.87,5.87,0,0,1-1.21-3.07c.1-1.34.71-1.6,3.11-1.42,1.57.13,1.2,2,.76,3.34a2.16,2.16,0,0,1,1.32-.71c1.82-.32,2.25-.12,2.63.35C1882.42,383.11,1883.38,385.46,1882.25,386.31Zm125.53,7.84c-3.66-.1-5,1.85-5,1.85a13.4,13.4,0,0,1-.33,3.9.24.24,0,0,1-.23.1c-.17,0-.27-.34-.27-.34s.69-4.44,0-6,0-4.55,0-4.55a.55.55,0,0,1,0,.1c-.17.4-.92,2-2.33,1.95a2.4,2.4,0,0,1-2.16-1.87c0-.13-.28-2,2.26-2.59a5.15,5.15,0,0,1-3.18-.36c-1.13-.85-.17-3.2-.11-3.28.38-.47.81-.67,2.63-.35a2.22,2.22,0,0,1,1.33.71c-.45-1.31-.82-3.21.75-3.34,2.4-.18,3,.08,3.12,1.42a5.85,5.85,0,0,1-1.22,3.07,10.83,10.83,0,0,1,1.15-.93c1-.68,2.28-1.41,3.17-1,1.51.7,1.13,3.34.63,3.59s-1.59,1.4-4.39.09c0,0,4.55,2,3,3.92a2.29,2.29,0,0,1-3.46.39,7.13,7.13,0,0,1-.73-2.52l-.22.55c-.22,1.41-.44,3.45,0,4.14a8.83,8.83,0,0,0,.49,2,4.79,4.79,0,0,1,4.78-3.57s3.55.61,4.94,0A4.49,4.49,0,0,1,2007.78,394.15ZM2020,97.8c-27.08,0-49.39-5.84-52.49-13.36-9.3.9-19.27,1.39-29.64,1.39-51.16,0-92.64-11.9-92.64-26.57s41.48-26.57,92.64-26.57,92.64,11.89,92.64,26.57c0,2.9-1.63,5.7-4.64,8.31,26.43.84,47,7.27,47,15.07C2072.88,91,2049.21,97.8,2020,97.8Z"/><path class="cls-60" d="M1456.63,120.23c-23.76,1.49-41.54,7.55-41.54,14.81,0,8.37,23.66,15.16,52.86,15.16,21.66,0,40.27-3.74,48.43-9.08C1485.17,137.85,1461.82,129.9,1456.63,120.23Z"/><path class="cls-61" d="M1456.63,120.23c-23.76,1.49-41.54,7.55-41.54,14.81,0,8.37,23.66,15.16,52.86,15.16,21.66,0,40.27-3.74,48.43-9.08C1485.17,137.85,1461.82,129.9,1456.63,120.23Z"/><path class="cls-62" d="M2025.89,67.57c-9.09,7.93-30.82,14.2-58.36,16.87,3.1,7.52,25.41,13.36,52.49,13.36,29.19,0,52.86-6.78,52.86-15.16C2072.88,74.84,2052.32,68.41,2025.89,67.57Z"/><path class="cls-63" d="M2025.89,67.57c-9.09,7.93-30.82,14.2-58.36,16.87,3.1,7.52,25.41,13.36,52.49,13.36,29.19,0,52.86-6.78,52.86-15.16C2072.88,74.84,2052.32,68.41,2025.89,67.57Z"/><path class="cls-64" d="M1859.77,156.27c13.16-2.13,22-6.18,22-10.83,0-6.87-19.42-12.44-43.39-12.44-13,0-24.63,1.63-32.58,4.23C1833.18,140.63,1853.67,147.7,1859.77,156.27Z"/><path class="cls-65" d="M1859.77,156.27c13.16-2.13,22-6.18,22-10.83,0-6.87-19.42-12.44-43.39-12.44-13,0-24.63,1.63-32.58,4.23C1833.18,140.63,1853.67,147.7,1859.77,156.27Z"/><path class="cls-66" d="M1548.18,89.58c-51.16,0-92.64,11.9-92.64,26.57a8.49,8.49,0,0,0,1.09,4.08c3.65-.23,7.43-.35,11.32-.35,29.2,0,52.87,6.79,52.87,15.16,0,2.16-1.59,4.22-4.44,6.08a306.76,306.76,0,0,0,31.8,1.6c51.16,0,92.64-11.89,92.64-26.57S1599.34,89.58,1548.18,89.58Z"/><path class="cls-67" d="M1548.18,89.58c-51.16,0-92.64,11.9-92.64,26.57a8.49,8.49,0,0,0,1.09,4.08c3.65-.23,7.43-.35,11.32-.35,29.2,0,52.87,6.79,52.87,15.16,0,2.16-1.59,4.22-4.44,6.08a306.76,306.76,0,0,0,31.8,1.6c51.16,0,92.64-11.89,92.64-26.57S1599.34,89.58,1548.18,89.58Z"/><path class="cls-68" d="M1520.82,135c0-8.37-23.67-15.16-52.87-15.16-3.89,0-7.67.12-11.32.35,5.19,9.67,28.54,17.62,59.75,20.89C1519.23,139.26,1520.82,137.2,1520.82,135Z"/><path class="cls-69" d="M1520.82,135c0-8.37-23.67-15.16-52.87-15.16-3.89,0-7.67.12-11.32.35,5.19,9.67,28.54,17.62,59.75,20.89C1519.23,139.26,1520.82,137.2,1520.82,135Z"/><path class="cls-70" d="M1520.82,135c0-8.37-23.67-15.16-52.87-15.16-3.89,0-7.67.12-11.32.35,5.19,9.67,28.54,17.62,59.75,20.89C1519.23,139.26,1520.82,137.2,1520.82,135Z"/><path class="cls-71" d="M1838.42,157.89c-24,0-43.39-5.58-43.39-12.45,0-3.15,4.09-6,10.81-8.21A299.72,299.72,0,0,0,1769,135c-51.16,0-92.64,11.9-92.64,26.57s41.48,26.57,92.64,26.57,92.64-11.9,92.64-26.57a9.22,9.22,0,0,0-1.87-5.34A134.34,134.34,0,0,1,1838.42,157.89Z"/><path class="cls-72" d="M1838.42,157.89c-24,0-43.39-5.58-43.39-12.45,0-3.15,4.09-6,10.81-8.21A299.72,299.72,0,0,0,1769,135c-51.16,0-92.64,11.9-92.64,26.57s41.48,26.57,92.64,26.57,92.64-11.9,92.64-26.57a9.22,9.22,0,0,0-1.87-5.34A134.34,134.34,0,0,1,1838.42,157.89Z"/><path class="cls-73" d="M1795,145.44c0,6.87,19.43,12.45,43.39,12.45a134.34,134.34,0,0,0,21.35-1.62c-6.1-8.57-26.59-15.64-53.93-19C1799.12,139.42,1795,142.29,1795,145.44Z"/><path class="cls-74" d="M1795,145.44c0,6.87,19.43,12.45,43.39,12.45a134.34,134.34,0,0,0,21.35-1.62c-6.1-8.57-26.59-15.64-53.93-19C1799.12,139.42,1795,142.29,1795,145.44Z"/><path class="cls-75" d="M1795,145.44c0,6.87,19.43,12.45,43.39,12.45a134.34,134.34,0,0,0,21.35-1.62c-6.1-8.57-26.59-15.64-53.93-19C1799.12,139.42,1795,142.29,1795,145.44Z"/><path class="cls-76" d="M2020,67.48c2,0,3.94,0,5.87.09,3-2.61,4.64-5.41,4.64-8.31,0-14.68-41.48-26.57-92.64-26.57s-92.64,11.89-92.64,26.57,41.48,26.57,92.64,26.57c10.37,0,20.34-.49,29.64-1.39a4.77,4.77,0,0,1-.38-1.8C1967.15,74.27,1990.82,67.48,2020,67.48Z"/><path class="cls-77" d="M2020,67.48c2,0,3.94,0,5.87.09,3-2.61,4.64-5.41,4.64-8.31,0-14.68-41.48-26.57-92.64-26.57s-92.64,11.89-92.64,26.57,41.48,26.57,92.64,26.57c10.37,0,20.34-.49,29.64-1.39a4.77,4.77,0,0,1-.38-1.8C1967.15,74.27,1990.82,67.48,2020,67.48Z"/><path class="cls-78" d="M2020,67.48c-29.2,0-52.87,6.79-52.87,15.16a4.77,4.77,0,0,0,.38,1.8c27.54-2.67,49.27-8.94,58.36-16.87C2024,67.51,2022,67.48,2020,67.48Z"/><path class="cls-79" d="M2020,67.48c-29.2,0-52.87,6.79-52.87,15.16a4.77,4.77,0,0,0,.38,1.8c27.54-2.67,49.27-8.94,58.36-16.87C2024,67.51,2022,67.48,2020,67.48Z"/><path class="cls-80" d="M2020,67.48c-29.2,0-52.87,6.79-52.87,15.16a4.77,4.77,0,0,0,.38,1.8c27.54-2.67,49.27-8.94,58.36-16.87C2024,67.51,2022,67.48,2020,67.48Z"/><path class="cls-81" d="M1511.74,388.08l.22.55c-.13-.84-.27-1.47-.27-1.47A2.77,2.77,0,0,1,1511.74,388.08Z"/><path class="cls-2" d="M1512,392.77a9.1,9.1,0,0,1-.5,2,4.79,4.79,0,0,0-4.78-3.57s-3.55.61-4.94,0a4.49,4.49,0,0,0,4.58,2.95c3.66-.1,5,1.85,5,1.85a13,13,0,0,0,.33,3.9.23.23,0,0,0,.22.1c.17,0,.27-.34.27-.34s-.69-4.44,0-6,0-4.55,0-4.55a.55.55,0,0,0,0,.1l-.22-.55C1512.18,390,1512.4,392.08,1512,392.77Z"/><path class="cls-30" d="M1515.07,382.68a2.16,2.16,0,0,0-1.32.71,10,10,0,0,1-.49,1.2,1.22,1.22,0,0,1,.43.92,1.28,1.28,0,1,1-.43-.92,2,2,0,0,1,.49-1.2c.44-1.31.81-3.21-.76-3.34-2.4-.18-3,.08-3.12,1.42a5.85,5.85,0,0,0,1.22,3.07,10.83,10.83,0,0,0-1.15-.93c-1-.68-2.27-1.41-3.16-1-1.52.7-1.14,3.34-.64,3.59s1.6,1.4,4.39.09c0,0-4.55,2-3,3.92a2.28,2.28,0,0,0,3.45.39,6.92,6.92,0,0,0,.73-2.52,2.77,2.77,0,0,0,0-.92s.14.63.27,1.47l.22.55c.17.4.92,2,2.33,1.95a2.39,2.39,0,0,0,2.16-1.87c0-.13.28-2-2.25-2.59h0c-.59-.07-1-.16-1-.16a6.63,6.63,0,0,1,1,.16,5.12,5.12,0,0,0,3.17-.36c1.13-.85.17-3.2.11-3.28C1517.32,382.56,1516.89,382.36,1515.07,382.68Z"/><path class="cls-30" d="M1513.26,384.59a10,10,0,0,0,.49-1.2,2,2,0,0,0-.49,1.2Z"/><path class="cls-30" d="M1514.42,386.67a6.63,6.63,0,0,0-1-.16S1513.83,386.6,1514.42,386.67Z"/><path class="cls-1" d="M1513.26,384.59a1.23,1.23,0,1,0,.43.92,1.22,1.22,0,0,0-.43-.92h0Z"/><path class="cls-1" d="M1513.26,384.6h0Z"/><path class="cls-82" d="M1656.78,387.16s-.13.63-.26,1.47l.22-.55A3.08,3.08,0,0,1,1656.78,387.16Z"/><path class="cls-2" d="M1661.77,391.18a4.79,4.79,0,0,0-4.78,3.57,9.1,9.1,0,0,1-.5-2c-.42-.69-.19-2.73,0-4.14l-.22.55,0-.1s-.69,3,0,4.55,0,6,0,6,.1.33.26.34a.24.24,0,0,0,.23-.1,13,13,0,0,0,.33-3.9s1.31-1.95,5-1.85a4.5,4.5,0,0,0,4.59-2.95C1665.31,391.79,1661.77,391.18,1661.77,391.18Z"/><path class="cls-31" d="M1656.78,387.16a3.08,3.08,0,0,0,0,.92,7.2,7.2,0,0,0,.72,2.52,2.29,2.29,0,0,0,3.46-.39c1.58-1.89-3-3.92-3-3.92,2.8,1.31,3.9.16,4.4-.09s.88-2.89-.64-3.59c-.89-.41-2.22.32-3.16,1a11.69,11.69,0,0,0-1.16.93,5.85,5.85,0,0,0,1.22-3.07c-.1-1.34-.72-1.6-3.11-1.42-1.57.13-1.2,2-.76,3.34a2,2,0,0,1,.49,1.2,1.23,1.23,0,1,1-.43.92,1.22,1.22,0,0,1,.43-.92,10,10,0,0,1-.49-1.2,2.22,2.22,0,0,0-1.32-.71c-1.83-.32-2.25-.12-2.63.35-.07.08-1,2.43.11,3.28a5.12,5.12,0,0,0,3.17.36,6.69,6.69,0,0,1,1-.16s-.42.09-1,.16h0c-2.53.6-2.25,2.46-2.25,2.59a2.39,2.39,0,0,0,2.15,1.87c1.42,0,2.17-1.55,2.34-1.95l.22-.55C1656.65,387.79,1656.78,387.16,1656.78,387.16Z"/><path class="cls-31" d="M1655.22,384.59a2,2,0,0,0-.49-1.2,10,10,0,0,0,.49,1.2Z"/><path class="cls-31" d="M1654.06,386.67c.59-.07,1-.16,1-.16A6.69,6.69,0,0,0,1654.06,386.67Z"/><path class="cls-1" d="M1655.22,384.59a1.22,1.22,0,0,0-.43.92,1.28,1.28,0,1,0,.43-.92h0Z"/><path class="cls-1" d="M1655.22,384.6h0Z"/><path class="cls-83" d="M1876.4,388.08l.22.55c-.13-.84-.27-1.47-.27-1.47A2.77,2.77,0,0,1,1876.4,388.08Z"/><path class="cls-2" d="M1876.65,392.77a9.1,9.1,0,0,1-.5,2,4.79,4.79,0,0,0-4.78-3.57s-3.55.61-4.94,0a4.49,4.49,0,0,0,4.58,2.95c3.66-.1,5,1.85,5,1.85a13,13,0,0,0,.33,3.9.23.23,0,0,0,.22.1c.17,0,.27-.34.27-.34s-.69-4.44,0-6,0-4.55,0-4.55a.55.55,0,0,0,0,.1l-.22-.55C1876.84,390,1877.06,392.08,1876.65,392.77Z"/><path class="cls-32" d="M1879.73,382.68a2.16,2.16,0,0,0-1.32.71,10,10,0,0,1-.49,1.2,1.22,1.22,0,0,1,.43.92,1.28,1.28,0,1,1-.43-.92,2,2,0,0,1,.49-1.2c.44-1.31.81-3.21-.76-3.34-2.4-.18-3,.08-3.11,1.42a5.87,5.87,0,0,0,1.21,3.07,10.83,10.83,0,0,0-1.15-.93c-.95-.68-2.27-1.41-3.16-1-1.52.7-1.14,3.34-.64,3.59s1.6,1.4,4.39.09c0,0-4.55,2-3,3.92a2.28,2.28,0,0,0,3.45.39,6.92,6.92,0,0,0,.73-2.52,2.77,2.77,0,0,0-.05-.92s.14.63.27,1.47l.22.55c.17.4.92,2,2.34,1.95a2.39,2.39,0,0,0,2.15-1.87c0-.13.28-2-2.25-2.59h0c-.59-.07-1-.16-1-.16a6.63,6.63,0,0,1,1,.16,5.12,5.12,0,0,0,3.17-.36c1.13-.85.17-3.2.11-3.28C1882,382.56,1881.55,382.36,1879.73,382.68Z"/><path class="cls-32" d="M1877.92,384.59a10,10,0,0,0,.49-1.2,2,2,0,0,0-.49,1.2Z"/><path class="cls-32" d="M1879.08,386.67a6.63,6.63,0,0,0-1-.16S1878.49,386.6,1879.08,386.67Z"/><path class="cls-1" d="M1877.92,384.59a1.23,1.23,0,1,0,.43.92,1.22,1.22,0,0,0-.43-.92h0Z"/><path class="cls-1" d="M1877.92,384.6h0Z"/><path class="cls-84" d="M2002.44,387.16s-.13.63-.27,1.47l.22-.55A3.07,3.07,0,0,1,2002.44,387.16Z"/><path class="cls-2" d="M2007.42,391.18a4.79,4.79,0,0,0-4.78,3.57,8.83,8.83,0,0,1-.49-2c-.42-.69-.2-2.73,0-4.14l-.22.55a.55.55,0,0,0,0-.1s-.69,3,0,4.55,0,6,0,6,.1.33.27.34a.24.24,0,0,0,.23-.1,13.4,13.4,0,0,0,.33-3.9s1.3-1.95,5-1.85a4.49,4.49,0,0,0,4.58-2.95C2011,391.79,2007.42,391.18,2007.42,391.18Z"/><path class="cls-31" d="M2002.44,387.16a3.07,3.07,0,0,0,0,.92,7.13,7.13,0,0,0,.73,2.52,2.29,2.29,0,0,0,3.46-.39c1.57-1.89-3-3.92-3-3.92,2.8,1.31,3.9.16,4.39-.09s.88-2.89-.63-3.59c-.89-.41-2.22.32-3.17,1a10.83,10.83,0,0,0-1.15.93,5.85,5.85,0,0,0,1.22-3.07c-.1-1.34-.72-1.6-3.12-1.42-1.57.13-1.2,2-.75,3.34a2.15,2.15,0,0,1,.49,1.2,1.2,1.2,0,0,1,.81-.32,1.24,1.24,0,1,1-1.24,1.24,1.21,1.21,0,0,1,.42-.92,11.06,11.06,0,0,1-.48-1.2,2.22,2.22,0,0,0-1.33-.71c-1.82-.32-2.25-.12-2.63.35-.06.08-1,2.43.11,3.28a5.15,5.15,0,0,0,3.18.36,6.69,6.69,0,0,1,1-.16s-.42.09-1,.16h0c-2.54.6-2.26,2.46-2.26,2.59a2.4,2.4,0,0,0,2.16,1.87c1.41,0,2.16-1.55,2.33-1.95l.22-.55C2002.31,387.79,2002.44,387.16,2002.44,387.16Z"/><path class="cls-31" d="M2000.88,384.59a2.15,2.15,0,0,0-.49-1.2,11.06,11.06,0,0,0,.48,1.2Z"/><path class="cls-31" d="M1999.72,386.67c.59-.07,1-.16,1-.16A6.69,6.69,0,0,0,1999.72,386.67Z"/><path class="cls-1" d="M2000.87,384.59a1.21,1.21,0,0,0-.42.92,1.24,1.24,0,1,0,1.24-1.24,1.2,1.2,0,0,0-.81.32h0Z"/><path class="cls-1" d="M2000.88,384.6h0Z"/></svg>