<svg id="Layer_1" data-name="Layer 1" xmlns="http://www.w3.org/2000/svg" viewBox="0 0 120 110"><defs><style>.cls-1{fill:#fff;}.cls-2{fill:#e94436;}.cls-3{fill:#fbbd05;}.cls-4{fill:#4285f5;}.cls-5{fill:none;}.cls-6{fill:#34a854;}</style></defs><ellipse class="cls-1" cx="32.91" cy="4.98" rx="4.96" ry="4.98"/><path class="cls-2" d="M35.89,5.19a.27.27,0,0,1-.39,0l0,0L34.27,4l-.82,1.13v0a.27.27,0,0,1-.39,0A.28.28,0,0,1,33,4.8h0l1-1L32.5,2.4a.11.11,0,0,1,0-.12.08.08,0,0,1,.11,0l1.58,1.24,1.15-1.24a.08.08,0,0,1,.11,0,.09.09,0,0,1,0,.12l-1,1.35,1.32,1h0A.29.29,0,0,1,35.89,5.19Z"/><polygon points="30.7 43.64 30.7 43.64 30.7 43.64 30.7 43.64"/><polygon points="53.28 15.82 53.28 15.82 48.41 20.58 53.28 15.82"/><path class="cls-3" d="M12.64,45.39a20.78,20.78,0,0,1-1.59-8.27,20.79,20.79,0,0,1,1.59-8.28q.43-1,.93-1.89l-7.9-7.7a32,32,0,0,0-3.22,5.67A30.08,30.08,0,0,0,0,37.12,30.06,30.06,0,0,0,2.45,49.31a30.45,30.45,0,0,0,6.6,9.63l7.68-7.48A19,19,0,0,1,12.64,45.39Z"/><path class="cls-4" d="M59.83,36.62a18.22,18.22,0,0,0-.4-2.36H45.12l-1.48-1.85-.57,1.85H41.9l-1.47-1.85-.57,1.85h-1l-1.47-1.85-.58,1.85h-1l-1.47-1.85-.58,1.85H32.74l-1.47-1.85-.57,1.85v9.38H49.11a20.85,20.85,0,0,1-1.84,5,13.31,13.31,0,0,1-2.82,3.71,17.26,17.26,0,0,1-2.71,2l7.72,7.53a27.25,27.25,0,0,0,3.42-3,24.55,24.55,0,0,0,5.4-8.9A32.1,32.1,0,0,0,60,39.4,21.72,21.72,0,0,0,59.83,36.62Z"/><ellipse class="cls-1" cx="24.4" cy="6.33" rx="6.3" ry="6.33"/><path class="cls-5" d="M24.4,1a5.32,5.32,0,0,0-4.78,7.62,31.85,31.85,0,0,1,10.06-2c0-.1,0-.2,0-.3A5.31,5.31,0,0,0,24.4,1Z"/><path class="cls-2" d="M13.57,27Z"/><path class="cls-2" d="M13.57,27Z"/><path class="cls-5" d="M24.4,1a5.34,5.34,0,1,0,5.28,5.63c0-.1,0-.2,0-.3A5.31,5.31,0,0,0,24.4,1Z"/><path class="cls-5" d="M30.68,6.61h.26A37.31,37.31,0,0,1,36.32,7a4,4,0,0,0-3.41-6,3.91,3.91,0,0,0-3.29,1.79A6.32,6.32,0,0,1,30.7,6.33,2.46,2.46,0,0,1,30.68,6.61Z"/><path class="cls-2" d="M29.68,6.63a5.32,5.32,0,0,1-.06.56,3.93,3.93,0,0,0,6.7-.2,37.31,37.31,0,0,0-5.38-.39h-.26a2.46,2.46,0,0,0,0-.28,6.32,6.32,0,0,0-1.08-3.54,3.68,3.68,0,0,0-.51,1.12,5.33,5.33,0,0,1,.58,2.42C29.69,6.43,29.68,6.53,29.68,6.63Z"/><path class="cls-2" d="M29.11,3.91a3.68,3.68,0,0,1,.51-1.12A6.48,6.48,0,0,0,29,2a5.11,5.11,0,0,0-.54.9A5.15,5.15,0,0,1,29.11,3.91Z"/><path class="cls-5" d="M24.4,1a5.34,5.34,0,1,0,4.88,7.37,5.92,5.92,0,0,0,.34-1.18,3.93,3.93,0,0,0,6.7-.2,4,4,0,0,0-3.41-6,3.91,3.91,0,0,0-3.29,1.79A6.48,6.48,0,0,0,29,2a5.11,5.11,0,0,0-.54.9A5.25,5.25,0,0,0,24.4,1Z"/><path class="cls-2" d="M43.67,9.05a29.07,29.07,0,0,0-6.31-1.89A5,5,0,0,0,32.91,0,4.94,4.94,0,0,0,29,2a6.48,6.48,0,0,1,.66.81A3.91,3.91,0,0,1,32.91,1a4,4,0,1,1-3.29,6.19,5.92,5.92,0,0,1-.34,1.18A5.3,5.3,0,1,1,24.4,1a5.25,5.25,0,0,1,4,1.88A5.11,5.11,0,0,1,29,2,6.24,6.24,0,0,0,24.4,0a6.33,6.33,0,0,0-5.72,9,30,30,0,0,0-9.59,6.27,30.35,30.35,0,0,0-3.42,4l7.9,7.7h0l2.38-.6L14.82,25c.36-.5.73-1,1.12-1.43l2.27.24-.87-1.66a17.76,17.76,0,0,1,1.93-1.53l2.11.66-.48-1.68a18.86,18.86,0,0,1,2.22-1.06L25,19.6l-.12-1.7a20.9,20.9,0,0,1,2.49-.57l1.24,1.5.53-1.71c.55-.05,1.11-.07,1.68-.07h.47l1.27,1.85.72-1.75a21.11,21.11,0,0,1,2.37.34l.55,1.93L37.51,18h0a16.36,16.36,0,0,1,1.57.59l.5,2,1.13-1.22a17.53,17.53,0,0,1,1.78,1.11v2.21l1.53-1a20.48,20.48,0,0,1,1.66,1.58l2.74-2.67,4.88-4.76A28.8,28.8,0,0,0,43.67,9.05Z"/><path class="cls-2" d="M28.78,8.53a.51.51,0,0,1-.76,0l-.05,0L25.58,6.26,24,8.49l0,0a.51.51,0,0,1-.76,0,.54.54,0,0,1-.13-.76l0,0,1.89-2L22.09,3a.16.16,0,0,1,0-.22.16.16,0,0,1,.22,0L25.4,5.23l2.25-2.44a.17.17,0,0,1,.23,0,.17.17,0,0,1,0,.22L26,5.69l2.61,2s0,0,0,0A.55.55,0,0,1,28.78,8.53Z"/><path class="cls-6" d="M42.72,89.05H41.57V66c.65-.22,1.28-.44,1.9-.7a27.69,27.69,0,0,0,6-3.41L41.74,54.4a20.16,20.16,0,0,1-2.82,1.44A20.74,20.74,0,0,1,31,57.18a20.69,20.69,0,0,1-7.69-1.42,19.52,19.52,0,0,1-6.35-4l-.25-.25L9.05,58.94l0,0a29.27,29.27,0,0,0,8,5.53,3.49,3.49,0,0,0-.06.65V106.3a3.71,3.71,0,0,0,3.71,3.7h4.86a3.71,3.71,0,0,0,0-7.42H24.4V67a32.67,32.67,0,0,0,6.54.65c1.1,0,2.17,0,3.21-.13V92.77a3.71,3.71,0,0,0,3.71,3.7h4.86a3.72,3.72,0,0,0,3.71-3.71h0A3.72,3.72,0,0,0,42.72,89.05Z"/><ellipse class="cls-1" cx="92.91" cy="4.98" rx="4.96" ry="4.98"/><path class="cls-2" d="M95.89,5.19a.27.27,0,0,1-.39,0l0,0L94.27,4l-.82,1.13v0a.27.27,0,0,1-.39,0A.28.28,0,0,1,93,4.8h0l1-1L92.5,2.4a.11.11,0,0,1,0-.12.08.08,0,0,1,.11,0l1.58,1.24,1.15-1.24a.08.08,0,0,1,.11,0,.09.09,0,0,1,0,.12l-1,1.35,1.32,1h0A.29.29,0,0,1,95.89,5.19Z"/><polygon points="90.7 43.64 90.7 43.64 90.7 43.64 90.7 43.64"/><polygon points="113.28 15.82 113.28 15.82 108.41 20.58 113.28 15.82"/><path class="cls-3" d="M72.64,45.39a20.78,20.78,0,0,1-1.59-8.27,20.79,20.79,0,0,1,1.59-8.28q.44-1,.93-1.89l-7.9-7.7a32,32,0,0,0-3.22,5.67A30.08,30.08,0,0,0,60,37.12a30.06,30.06,0,0,0,2.45,12.19,30.45,30.45,0,0,0,6.6,9.63l7.68-7.48A19,19,0,0,1,72.64,45.39Z"/><path class="cls-4" d="M119.83,36.62a18.22,18.22,0,0,0-.4-2.36H105.12l-1.48-1.85-.57,1.85H101.9l-1.47-1.85-.57,1.85h-1l-1.47-1.85-.58,1.85H95.9l-1.47-1.85-.58,1.85H92.74l-1.47-1.85-.57,1.85v9.38h18.41a20.85,20.85,0,0,1-1.84,5,13.31,13.31,0,0,1-2.82,3.71,17.26,17.26,0,0,1-2.71,2l7.72,7.53a27.25,27.25,0,0,0,3.42-3,24.55,24.55,0,0,0,5.4-8.9A32.1,32.1,0,0,0,120,39.4,21.72,21.72,0,0,0,119.83,36.62Z"/><ellipse class="cls-1" cx="84.4" cy="6.33" rx="6.3" ry="6.33"/><path class="cls-5" d="M84.4,1a5.32,5.32,0,0,0-4.78,7.62,31.85,31.85,0,0,1,10.06-2c0-.1,0-.2,0-.3A5.31,5.31,0,0,0,84.4,1Z"/><path class="cls-2" d="M73.57,27Z"/><path class="cls-2" d="M73.57,27Z"/><path class="cls-5" d="M84.4,1a5.34,5.34,0,1,0,5.28,5.63c0-.1,0-.2,0-.3A5.31,5.31,0,0,0,84.4,1Z"/><path class="cls-5" d="M90.68,6.61h.26A37.31,37.31,0,0,1,96.32,7a4,4,0,0,0-3.41-6,3.91,3.91,0,0,0-3.29,1.79A6.32,6.32,0,0,1,90.7,6.33,2.46,2.46,0,0,1,90.68,6.61Z"/><path class="cls-2" d="M89.68,6.63a5.32,5.32,0,0,1-.06.56,3.93,3.93,0,0,0,6.7-.2,37.31,37.31,0,0,0-5.38-.39h-.26a2.46,2.46,0,0,0,0-.28,6.32,6.32,0,0,0-1.08-3.54,3.68,3.68,0,0,0-.51,1.12,5.33,5.33,0,0,1,.58,2.42C89.69,6.43,89.68,6.53,89.68,6.63Z"/><path class="cls-2" d="M89.11,3.91a3.68,3.68,0,0,1,.51-1.12A6.48,6.48,0,0,0,89,2a5.11,5.11,0,0,0-.54.9A5.15,5.15,0,0,1,89.11,3.91Z"/><path class="cls-5" d="M84.4,1a5.34,5.34,0,1,0,4.88,7.37,5.92,5.92,0,0,0,.34-1.18,3.93,3.93,0,0,0,6.7-.2,4,4,0,0,0-3.41-6,3.91,3.91,0,0,0-3.29,1.79A6.48,6.48,0,0,0,89,2a5.11,5.11,0,0,0-.54.9A5.25,5.25,0,0,0,84.4,1Z"/><path class="cls-2" d="M103.67,9.05a29.07,29.07,0,0,0-6.31-1.89A5,5,0,0,0,92.91,0a4.94,4.94,0,0,0-4,2,6.48,6.48,0,0,1,.66.81A3.91,3.91,0,0,1,92.91,1a4,4,0,1,1-3.29,6.19,5.92,5.92,0,0,1-.34,1.18A5.3,5.3,0,1,1,84.4,1a5.25,5.25,0,0,1,4,1.88A5.11,5.11,0,0,1,89,2,6.24,6.24,0,0,0,84.4,0a6.33,6.33,0,0,0-5.72,9,30,30,0,0,0-9.59,6.27,30.35,30.35,0,0,0-3.42,4l7.9,7.7h0l2.38-.6L74.82,25c.36-.5.73-1,1.12-1.43l2.27.24-.87-1.66a17.76,17.76,0,0,1,1.93-1.53l2.11.66-.48-1.68a18.86,18.86,0,0,1,2.22-1.06L85,19.6l-.12-1.7a20.9,20.9,0,0,1,2.49-.57l1.24,1.5.53-1.71c.55-.05,1.11-.07,1.68-.07h.47l1.27,1.85.72-1.75a21.11,21.11,0,0,1,2.37.34l.55,1.93L97.51,18h0a16.36,16.36,0,0,1,1.57.59l.5,2,1.13-1.22a17.53,17.53,0,0,1,1.78,1.11v2.21l1.53-1a20.48,20.48,0,0,1,1.66,1.58l2.74-2.67,4.88-4.76A28.8,28.8,0,0,0,103.67,9.05Z"/><path class="cls-2" d="M88.78,8.53a.51.51,0,0,1-.76,0l0,0L85.58,6.26,84,8.49l0,0a.51.51,0,0,1-.76,0,.54.54,0,0,1-.13-.76l0,0,1.89-2L82.09,3a.16.16,0,0,1,0-.22.16.16,0,0,1,.22,0L85.4,5.23l2.25-2.44a.17.17,0,0,1,.23,0,.17.17,0,0,1,0,.22L86,5.69l2.61,2,0,0A.55.55,0,0,1,88.78,8.53Z"/><path class="cls-6" d="M102.72,102.58h-1.15V66c.65-.22,1.28-.44,1.9-.7a27.69,27.69,0,0,0,6-3.41l-7.72-7.53a20.16,20.16,0,0,1-2.82,1.44,22.69,22.69,0,0,1-15.59-.08,19.52,19.52,0,0,1-6.35-4c-.09-.08-.17-.17-.25-.25l-7.68,7.48,0,0a29.27,29.27,0,0,0,8,5.53,3.49,3.49,0,0,0-.06.65V92.77a3.71,3.71,0,0,0,3.71,3.7h4.86a3.71,3.71,0,0,0,0-7.42H84.4V67a32.67,32.67,0,0,0,6.54.65c1.1,0,2.17,0,3.21-.13v38.8a3.71,3.71,0,0,0,3.71,3.7h4.86a3.72,3.72,0,0,0,3.71-3.71h0A3.72,3.72,0,0,0,102.72,102.58Z"/></svg>